<?xml version="1.0" standalone="no"?>
<!DOCTYPE svg PUBLIC "-//W3C//DTD SVG 1.1//EN" "http://www.w3.org/Graphics/SVG/1.1/DTD/svg11.dtd" >
<svg xmlns="http://www.w3.org/2000/svg" xmlns:xlink="http://www.w3.org/1999/xlink" version="1.1">
<metadata>
Created by FontForge 20170731 at Tue Dec 12 18:57:06 2023
 By Aleksey,,,
Alexander "STAN" Shimanov
</metadata>
<defs>
<font id="STIzhorafreeRegular" horiz-adv-x="1028" >
  <font-face 
    font-family="ST-Izhora-free"
    font-weight="400"
    font-stretch="normal"
    units-per-em="2048"
    panose-1="0 0 0 0 0 0 0 0 0 0"
    ascent="1638"
    descent="-410"
    x-height="1434"
    cap-height="1434"
    bbox="-20 -506 1969 1897"
    underline-thickness="102"
    underline-position="-307"
    unicode-range="U+000A-F00F"
  />
<missing-glyph horiz-adv-x="1079" 
d="M102 1434h875v-1434h-875v1434zM160 1393l379 -633l381 633h-760zM514 717l-369 614v-1231zM541 674l-379 -631h758zM565 717l371 -621v1239z" />
    <glyph glyph-name=".notdef" horiz-adv-x="1079" 
d="M102 1434h875v-1434h-875v1434zM160 1393l379 -633l381 633h-760zM514 717l-369 614v-1231zM541 674l-379 -631h758zM565 717l371 -621v1239z" />
    <glyph glyph-name=".null" horiz-adv-x="0" 
 />
    <glyph glyph-name=".null" horiz-adv-x="0" 
 />
    <glyph glyph-name="nonmarkingreturn" horiz-adv-x="682" 
 />
    <glyph glyph-name="controlLF" unicode="&#xa;" horiz-adv-x="0" 
 />
    <glyph glyph-name="controlCR" unicode="&#xd;" horiz-adv-x="0" 
 />
    <glyph glyph-name="space" unicode=" " horiz-adv-x="716" 
 />
    <glyph glyph-name="exclam" unicode="!" horiz-adv-x="598" 
d="M440 460h-283l-40 974h364zM356 -1q-78 -23 -150 15t-95 116t15 150t116 95t150 -15t95 -116t-15 -150t-116 -95z" />
    <glyph glyph-name="quotesingle" unicode="'" horiz-adv-x="532" 
d="M429 1662l-97 -469h-230v469h327z" />
    <glyph glyph-name="quotesingle" unicode="&#x2018;" horiz-adv-x="532" 
d="M429 1662l-97 -469h-230v469h327z" />
    <glyph glyph-name="plus" unicode="+" horiz-adv-x="1071" 
d="M969 880v-327h-270v-270h-327v270h-270v327h270v270h327v-270h270z" />
    <glyph glyph-name="comma" unicode="," horiz-adv-x="530" 
d="M470 339l-187 -537h-222l43 537h366z" />
    <glyph glyph-name="hyphen" unicode="-" horiz-adv-x="739" 
d="M636 553h-534v327h534v-327z" />
    <glyph glyph-name="period" unicode="." horiz-adv-x="516" 
d="M258 -10q-82 0 -139.5 57.5t-57.5 139.5t57.5 139t139.5 57t139 -57t57 -139t-57 -139.5t-139 -57.5z" />
    <glyph glyph-name="zero" unicode="0" horiz-adv-x="1052" 
d="M914 1184q78 -177 78 -474q0 -133 -17 -243t-44.5 -185.5t-67.5 -133t-80.5 -90.5t-88.5 -53.5t-87.5 -27.5t-80.5 -7t-80.5 7t-87.5 27.5t-88.5 53.5t-80 90.5t-67 133t-44.5 185.5t-17 243q0 297 78 474q57 129 157 197.5t230 68.5t230.5 -68.5t157.5 -197.5zM526 297
q37 0 64.5 37.5t41 87t21.5 115t9.5 103t1.5 70.5q0 232 -49 341q-15 33 -32.5 50t-28.5 19.5t-28 2.5q-13 0 -20.5 -1.5t-20 -7.5t-24.5 -21.5t-23 -41.5q-49 -109 -49 -341q0 -33 1.5 -70.5t9.5 -103.5t21 -115t40.5 -86.5t64.5 -37.5z" />
    <glyph glyph-name="one" unicode="1" horiz-adv-x="587" 
d="M51 1434h434v-1434h-324v1106h-110v328z" />
    <glyph glyph-name="two" unicode="2" horiz-adv-x="1036" 
d="M953 987q0 -88 -25.5 -166.5t-66 -135t-89 -105t-97.5 -84.5t-89.5 -65.5t-66 -55.5t-25.5 -48h422v-327h-814v164q0 55 7.5 104.5t24.5 91.5t34 76.5t45.5 67.5t49 55t55.5 49.5t54 41t54 37.5q59 41 89.5 65.5t59.5 60.5t40 76.5t11 97.5q0 65 -50 101q-56 39 -145 33
l-1 -229l-328 1q2 285 2 358v116l108 38q152 54 297.5 41t255.5 -91q90 -64 139 -160t49 -208z" />
    <glyph glyph-name="three" unicode="3" horiz-adv-x="991" 
d="M929 1283q1 -17 1.5 -38.5t-4 -73t-15 -100t-36.5 -110.5t-64 -113q54 -75 85 -170t31 -186q0 -106 -42 -197.5t-121 -155.5q-171 -139 -493 -139h-163q2 19 3.5 54.5t-8.5 149t-37 233.5l-5 25l321 64l5 -24q23 -119 31 -163q146 27 173 102q18 50 -1 115.5t-48 105.5
q-89 -26 -191 -26v309q81 0 155.5 49.5t74.5 111.5h-463v328h799z" />
    <glyph glyph-name="four" unicode="4" horiz-adv-x="1097" 
d="M1046 554v-327h-117v-227h-324v227h-554q0 125 13.5 232.5t42.5 203t50.5 151.5t61.5 146q31 71 46.5 110.5t35.5 102.5t28.5 125.5t8.5 135.5h591v-880h117zM417 554h188v550q-23 -136 -86 -276q-75 -166 -102 -274z" />
    <glyph glyph-name="five" unicode="5" horiz-adv-x="1064" 
d="M430 986q65 -18 113.5 -33t110 -40t105 -51t89 -65t73.5 -83.5t45.5 -104.5t17.5 -129q0 -153 -75.5 -265t-216.5 -167q-152 -59 -426 -59h-164v515h328v-181q75 7 122.5 22t69 37.5t28.5 44t7 53.5q0 48 -57 89.5t-138.5 66t-163.5 43t-139 25.5l-57 7v723h860v-406
h-327v78h-205v-120z" />
    <glyph glyph-name="six" unicode="6" horiz-adv-x="1048" 
d="M109 423q-14 76 -20.5 115.5t-16.5 115.5t-10.5 124t3.5 117t18 120t40.5 107t64.5 102q176 210 570 210h163v-445h-290l-23 110q-119 -24 -169 -84q-44 -53 -50 -155h578v-289q-13 -276 -183.5 -423.5t-475.5 -147.5h-163v164q0 61 -36 259zM431 482q18 -96 25 -141
q96 22 134.5 74.5t46.5 134.5h-218q2 -12 6 -34.5t6 -33.5z" />
    <glyph glyph-name="seven" unicode="7" horiz-adv-x="929" 
d="M61 1434h808v-177h-1q-1 -108 -27 -214.5t-50.5 -163t-70.5 -151.5q-32 -65 -46.5 -98t-34.5 -89t-28.5 -110t-8.5 -116v-315h-327v315q0 89 12 168t38.5 153.5t45.5 119t55 116.5q73 149 95 234h-460v328z" />
    <glyph glyph-name="eight" unicode="8" horiz-adv-x="1083" 
d="M998 1302q2 -16 3.5 -38.5t-5 -87t-25 -127.5t-66 -149.5t-117.5 -163.5q60 -62 103 -129.5t64.5 -124t32 -115.5t11 -99.5t-4.5 -80t-9 -53.5t-7 -24l-37 -110h-798l-38 110q-3 9 -7 23.5t-9 54t-4.5 80.5t11 99.5t32.5 115t65 124t103 129.5q-70 77 -117.5 163.5
t-66 150t-25.5 127t-5.5 87t3.5 38.5l21 139h871zM649 1116h-214q24 -103 107 -194q79 84 107 194zM419 325h245q-8 52 -39.5 117.5t-82.5 115.5q-51 -50 -84 -118t-39 -115z" />
    <glyph glyph-name="nine" unicode="9" horiz-adv-x="1069" 
d="M939 1012q14 -77 20.5 -116t16.5 -115.5t10.5 -124t-3 -117t-17.5 -120t-40.5 -107t-64.5 -102.5q-176 -210 -571 -210h-163v446h291l22 -111q119 24 169 84q43 53 50 156h-577v288q13 276 183 423.5t475 147.5h164v-163q0 -67 35 -259zM617 953q-13 70 -24 140
q-97 -22 -135.5 -75t-46.5 -134h218z" />
    <glyph glyph-name="question" unicode="?" horiz-adv-x="1021" 
d="M742 1362q85 -59 131.5 -149t46.5 -194q0 -67 -13.5 -129.5t-31 -105t-49 -89.5t-51 -70.5t-54.5 -61.5q-55 -61 -75 -94.5t-20 -79.5h-328q0 56 12.5 108.5t28 89t44.5 78.5t46.5 62.5t48.5 55.5q8 8 28 30t27 30t22 26.5t20 30.5t13 30.5t10.5 38t2.5 42.5q0 40 -21 63
t-50 27.5t-56 1.5t-43 -11l-1 -199l-328 2l2 473q8 4 22 9.5t58.5 20t89 25t107.5 17t121 3t122.5 -23.5t117.5 -57zM470 -27q-73 0 -125 52t-52 125t52 124.5t125 51.5t124.5 -51.5t51.5 -124.5t-51.5 -125t-124.5 -52z" />
    <glyph glyph-name="A" unicode="A" horiz-adv-x="1085" 
d="M678 0l-13 134h-297q-10 -73 -10 -134h-327q0 103 19.5 205.5t44 178t72.5 170.5t78.5 147t87.5 144q110 178 163.5 314.5t40.5 274.5h324l141 -1434h-324zM461 444h173l-27 273q-92 -149 -146 -273z" />
    <glyph glyph-name="A" unicode="&#xc5;" horiz-adv-x="1085" 
d="M678 0l-13 134h-297q-10 -73 -10 -134h-327q0 103 19.5 205.5t44 178t72.5 170.5t78.5 147t87.5 144q110 178 163.5 314.5t40.5 274.5h324l141 -1434h-324zM461 444h173l-27 273q-92 -149 -146 -273z" />
    <glyph glyph-name="A" unicode="&#xc4;" horiz-adv-x="1085" 
d="M678 0l-13 134h-297q-10 -73 -10 -134h-327q0 103 19.5 205.5t44 178t72.5 170.5t78.5 147t87.5 144q110 178 163.5 314.5t40.5 274.5h324l141 -1434h-324zM461 444h173l-27 273q-92 -149 -146 -273z" />
    <glyph glyph-name="A" unicode="&#xc3;" horiz-adv-x="1085" 
d="M678 0l-13 134h-297q-10 -73 -10 -134h-327q0 103 19.5 205.5t44 178t72.5 170.5t78.5 147t87.5 144q110 178 163.5 314.5t40.5 274.5h324l141 -1434h-324zM461 444h173l-27 273q-92 -149 -146 -273z" />
    <glyph glyph-name="A" unicode="&#xc2;" horiz-adv-x="1085" 
d="M678 0l-13 134h-297q-10 -73 -10 -134h-327q0 103 19.5 205.5t44 178t72.5 170.5t78.5 147t87.5 144q110 178 163.5 314.5t40.5 274.5h324l141 -1434h-324zM461 444h173l-27 273q-92 -149 -146 -273z" />
    <glyph glyph-name="A" unicode="&#xc1;" horiz-adv-x="1085" 
d="M678 0l-13 134h-297q-10 -73 -10 -134h-327q0 103 19.5 205.5t44 178t72.5 170.5t78.5 147t87.5 144q110 178 163.5 314.5t40.5 274.5h324l141 -1434h-324zM461 444h173l-27 273q-92 -149 -146 -273z" />
    <glyph glyph-name="A" unicode="&#xc0;" horiz-adv-x="1085" 
d="M678 0l-13 134h-297q-10 -73 -10 -134h-327q0 103 19.5 205.5t44 178t72.5 170.5t78.5 147t87.5 144q110 178 163.5 314.5t40.5 274.5h324l141 -1434h-324zM461 444h173l-27 273q-92 -149 -146 -273z" />
    <glyph glyph-name="B" unicode="B" horiz-adv-x="1058" 
d="M806 602q52 -60 86.5 -136t46 -143t15 -104t2.5 -59l-4 -160h-850v1434h844l9 -155q1 -13 -0.5 -50.5t-9 -114t-22 -156t-45 -178t-72.5 -178.5zM624 1106h-198v-332q63 -1 124 -17q74 169 74 349zM426 327h170q0 48 -44.5 89.5t-125.5 46.5v-136z" />
    <glyph glyph-name="C" unicode="C" horiz-adv-x="1030" 
d="M662 989l-22 118h-250q3 -104 22 -196t38 -142t55 -131q49 -114 57 -136q74 132 78 223h327q-6 -123 -60 -252t-107 -209q-175 -264 -342 -264h-164h-139v326h108q-20 89 -57 180q-2 6 -18 44.5t-20.5 49.5t-19 49.5t-20 57t-17.5 58.5t-17 67t-13 69.5t-11 80t-6 84
t-3 94.5v274h906v-445h-305z" />
    <glyph glyph-name="C" unicode="&#xc7;" horiz-adv-x="1030" 
d="M662 989l-22 118h-250q3 -104 22 -196t38 -142t55 -131q49 -114 57 -136q74 132 78 223h327q-6 -123 -60 -252t-107 -209q-175 -264 -342 -264h-164h-139v326h108q-20 89 -57 180q-2 6 -18 44.5t-20.5 49.5t-19 49.5t-20 57t-17.5 58.5t-17 67t-13 69.5t-11 80t-6 84
t-3 94.5v274h906v-445h-305z" />
    <glyph glyph-name="D" unicode="D" horiz-adv-x="1105" 
d="M751 845q57 -92 87.5 -144t78.5 -147t72.5 -170.5t44 -178t19.5 -205.5h-971l141 1434h324q-13 -138 40.5 -274.5t163.5 -314.5zM436 310h238q-58 179 -198 407z" />
    <glyph glyph-name="E" unicode="E" horiz-adv-x="1124" 
d="M404 1107q-27 -94 -7 -195l150 75l140 -280l-173 -87q10 -18 15 -28q48 -91 71 -196q84 83 108 225h330q-9 -80 -40.5 -166t-84 -167t-117.5 -145.5t-149 -103.5t-171 -39h-258q6 6 16 17.5t30 53t28 88.5t-3 123t-50 158q-7 15 -22 46q-27 56 -41 87t-39 90.5t-36 102.5
t-24.5 104t-13 114t6.5 115t27 124.5t55 124.5l47 86h842v-430h-305l-23 103h-309z" />
    <glyph glyph-name="E" unicode="&#xcb;" horiz-adv-x="1124" 
d="M404 1107q-27 -94 -7 -195l150 75l140 -280l-173 -87q10 -18 15 -28q48 -91 71 -196q84 83 108 225h330q-9 -80 -40.5 -166t-84 -167t-117.5 -145.5t-149 -103.5t-171 -39h-258q6 6 16 17.5t30 53t28 88.5t-3 123t-50 158q-7 15 -22 46q-27 56 -41 87t-39 90.5t-36 102.5
t-24.5 104t-13 114t6.5 115t27 124.5t55 124.5l47 86h842v-430h-305l-23 103h-309z" />
    <glyph glyph-name="E" unicode="&#xca;" horiz-adv-x="1124" 
d="M404 1107q-27 -94 -7 -195l150 75l140 -280l-173 -87q10 -18 15 -28q48 -91 71 -196q84 83 108 225h330q-9 -80 -40.5 -166t-84 -167t-117.5 -145.5t-149 -103.5t-171 -39h-258q6 6 16 17.5t30 53t28 88.5t-3 123t-50 158q-7 15 -22 46q-27 56 -41 87t-39 90.5t-36 102.5
t-24.5 104t-13 114t6.5 115t27 124.5t55 124.5l47 86h842v-430h-305l-23 103h-309z" />
    <glyph glyph-name="E" unicode="&#xc9;" horiz-adv-x="1124" 
d="M404 1107q-27 -94 -7 -195l150 75l140 -280l-173 -87q10 -18 15 -28q48 -91 71 -196q84 83 108 225h330q-9 -80 -40.5 -166t-84 -167t-117.5 -145.5t-149 -103.5t-171 -39h-258q6 6 16 17.5t30 53t28 88.5t-3 123t-50 158q-7 15 -22 46q-27 56 -41 87t-39 90.5t-36 102.5
t-24.5 104t-13 114t6.5 115t27 124.5t55 124.5l47 86h842v-430h-305l-23 103h-309z" />
    <glyph glyph-name="E" unicode="&#xc8;" horiz-adv-x="1124" 
d="M404 1107q-27 -94 -7 -195l150 75l140 -280l-173 -87q10 -18 15 -28q48 -91 71 -196q84 83 108 225h330q-9 -80 -40.5 -166t-84 -167t-117.5 -145.5t-149 -103.5t-171 -39h-258q6 6 16 17.5t30 53t28 88.5t-3 123t-50 158q-7 15 -22 46q-27 56 -41 87t-39 90.5t-36 102.5
t-24.5 104t-13 114t6.5 115t27 124.5t55 124.5l47 86h842v-430h-305l-23 103h-309z" />
    <glyph glyph-name="F" unicode="F" horiz-adv-x="1005" 
d="M942 1441v-604h-327v263q-109 -22 -155 -78q-32 -39 -43.5 -107t-7 -136t19.5 -160h350v-327h-295q8 -67 8 -121v-171h-327v171q0 67 -35 259q-14 77 -20.5 115.5t-16.5 115.5t-10.5 124.5t3 116.5t17.5 119.5t40.5 107t64.5 102.5q176 210 571 210h163z" />
    <glyph glyph-name="G" unicode="G" horiz-adv-x="1079" 
d="M996 717q0 -86 -25.5 -183.5t-76 -192t-117.5 -171t-157.5 -123.5t-188.5 -47h-164q1 5 2 15t0.5 41.5t-4.5 63.5t-18 78.5t-36 90.5q-72 141 -97 212q-117 328 30 716q24 60 53 123l45 94h754v-430h-310l-18 103h-215q-28 -71 -43.5 -136.5t-21 -115.5t0.5 -103
t13.5 -87t27 -80.5t31.5 -69.5t36 -67q5 -10 16 -43.5t17 -43.5q103 89 103 193l-106 22v286h469v-145z" />
    <glyph glyph-name="H" unicode="H" horiz-adv-x="1095" 
d="M669 1434h324v-1434h-324v588l-243 30v-618h-324v1434h324v-488l243 -30v518z" />
    <glyph glyph-name="I" unicode="I" horiz-adv-x="710" 
d="M629 1106h-112v-779h112v-327h-547v327h111v779h-111v328h547v-328z" />
    <glyph glyph-name="I" unicode="&#xcf;" horiz-adv-x="710" 
d="M629 1106h-112v-779h112v-327h-547v327h111v779h-111v328h547v-328z" />
    <glyph glyph-name="I" unicode="&#xce;" horiz-adv-x="710" 
d="M629 1106h-112v-779h112v-327h-547v327h111v779h-111v328h547v-328z" />
    <glyph glyph-name="I" unicode="&#xcd;" horiz-adv-x="710" 
d="M629 1106h-112v-779h112v-327h-547v327h111v779h-111v328h547v-328z" />
    <glyph glyph-name="I" unicode="&#xcc;" horiz-adv-x="710" 
d="M629 1106h-112v-779h112v-327h-547v327h111v779h-111v328h547v-328z" />
    <glyph glyph-name="J" unicode="J" horiz-adv-x="1036" 
d="M953 1433v-327h-57q2 -17 11 -67q41 -250 45 -366q12 -310 -136 -479q-170 -194 -521 -194h-164q0 6 0.5 18.5t-0.5 54t-4.5 87.5t-13 117.5t-23.5 145.5q-3 18 -13.5 69.5t-15.5 80.5h332q12 -60 18 -88q23 -113 30 -154q84 19 125 67q24 28 39 67t18.5 91.5t3.5 97.5
t-9 113.5t-15 107.5t-19 111q-17 100 -20 119v1h-184l-22 -118h-291v445h626q3 0 9 0.5t9 0.5h164v-1h78z" />
    <glyph glyph-name="K" unicode="K" horiz-adv-x="1034" 
d="M426 650q162 -17 283.5 -102.5t190.5 -232.5q31 -68 49 -146.5t20.5 -111.5t2.5 -56h-163l-164 -1q0 9 -1.5 29t-13 68t-30.5 87q-56 112 -174 136v-319h-324v1433h324v-318q123 25 177 143q18 38 28.5 83.5t12 64.5t1.5 27h327q0 -23 -2.5 -56t-20.5 -111t-49 -146
q-69 -147 -190.5 -232.5t-283.5 -102.5v-136z" />
    <glyph glyph-name="L" unicode="L" horiz-adv-x="921" 
d="M870 481v-481h-768v1434h324v-1107h142l10 154h292z" />
    <glyph glyph-name="M" unicode="M" horiz-adv-x="1509" 
d="M1290 1434h116v-1434h-324v914q-85 -172 -131 -379.5t-46 -372.5h-302q0 165 -46 372.5t-131 379.5v-914h-324v1434h117q95 0 178.5 -44.5t149 -124.5t115.5 -173.5t92 -208.5q33 91 70.5 168.5t88 149.5t106 122.5t125.5 80.5t146 30z" />
    <glyph glyph-name="N" unicode="N" horiz-adv-x="1136" 
d="M102 1434h164q48 0 91 -19t77 -50t65.5 -79t55.5 -98t48.5 -116t43.5 -124.5t42 -131.5q5 -15 7.5 -23.5t6.5 -21.5t7 -23v686h323v-1434h-131q-44 0 -89 27.5t-84.5 77.5t-76 107.5t-68.5 129t-57 130.5t-47 123.5t-32 96.5t-19 60q-3 9 -3 10v-762h-324v1434z" />
    <glyph glyph-name="O" unicode="O" horiz-adv-x="1583" 
d="M1532 717q0 -150 -58.5 -287.5t-158 -236.5t-236.5 -158t-287 -59t-287.5 59t-236.5 158t-158 236.5t-59 287.5t59 287t158 236.5t236.5 158t287.5 58.5t287 -58.5t236.5 -158t158 -236.5t58.5 -287zM1205 717q0 171 -121 292t-292 121t-292.5 -121t-121.5 -292
t121.5 -292t292.5 -121t292 121t121 292z" />
    <glyph glyph-name="O" unicode="&#xd8;" horiz-adv-x="1583" 
d="M1532 717q0 -150 -58.5 -287.5t-158 -236.5t-236.5 -158t-287 -59t-287.5 59t-236.5 158t-158 236.5t-59 287.5t59 287t158 236.5t236.5 158t287.5 58.5t287 -58.5t236.5 -158t158 -236.5t58.5 -287zM1205 717q0 171 -121 292t-292 121t-292.5 -121t-121.5 -292
t121.5 -292t292.5 -121t292 121t121 292z" />
    <glyph glyph-name="O" unicode="&#xd6;" horiz-adv-x="1583" 
d="M1532 717q0 -150 -58.5 -287.5t-158 -236.5t-236.5 -158t-287 -59t-287.5 59t-236.5 158t-158 236.5t-59 287.5t59 287t158 236.5t236.5 158t287.5 58.5t287 -58.5t236.5 -158t158 -236.5t58.5 -287zM1205 717q0 171 -121 292t-292 121t-292.5 -121t-121.5 -292
t121.5 -292t292.5 -121t292 121t121 292z" />
    <glyph glyph-name="O" unicode="&#xd5;" horiz-adv-x="1583" 
d="M1532 717q0 -150 -58.5 -287.5t-158 -236.5t-236.5 -158t-287 -59t-287.5 59t-236.5 158t-158 236.5t-59 287.5t59 287t158 236.5t236.5 158t287.5 58.5t287 -58.5t236.5 -158t158 -236.5t58.5 -287zM1205 717q0 171 -121 292t-292 121t-292.5 -121t-121.5 -292
t121.5 -292t292.5 -121t292 121t121 292z" />
    <glyph glyph-name="O" unicode="&#xd4;" horiz-adv-x="1583" 
d="M1532 717q0 -150 -58.5 -287.5t-158 -236.5t-236.5 -158t-287 -59t-287.5 59t-236.5 158t-158 236.5t-59 287.5t59 287t158 236.5t236.5 158t287.5 58.5t287 -58.5t236.5 -158t158 -236.5t58.5 -287zM1205 717q0 171 -121 292t-292 121t-292.5 -121t-121.5 -292
t121.5 -292t292.5 -121t292 121t121 292z" />
    <glyph glyph-name="O" unicode="&#xd3;" horiz-adv-x="1583" 
d="M1532 717q0 -150 -58.5 -287.5t-158 -236.5t-236.5 -158t-287 -59t-287.5 59t-236.5 158t-158 236.5t-59 287.5t59 287t158 236.5t236.5 158t287.5 58.5t287 -58.5t236.5 -158t158 -236.5t58.5 -287zM1205 717q0 171 -121 292t-292 121t-292.5 -121t-121.5 -292
t121.5 -292t292.5 -121t292 121t121 292z" />
    <glyph glyph-name="O" unicode="&#xd2;" horiz-adv-x="1583" 
d="M1532 717q0 -150 -58.5 -287.5t-158 -236.5t-236.5 -158t-287 -59t-287.5 59t-236.5 158t-158 236.5t-59 287.5t59 287t158 236.5t236.5 158t287.5 58.5t287 -58.5t236.5 -158t158 -236.5t58.5 -287zM1205 717q0 171 -121 292t-292 121t-292.5 -121t-121.5 -292
t121.5 -292t292.5 -121t292 121t121 292z" />
    <glyph glyph-name="P" unicode="P" horiz-adv-x="1013" 
d="M102 1434h860v-164q0 -68 -11.5 -135t-27.5 -120.5t-45.5 -113t-52.5 -99.5t-63 -94t-63.5 -82.5t-65.5 -79.5q-111 -133 -157 -211t-46 -161h-4v-174h-324v1434zM426 809q143 174 183 297h-183v-297z" />
    <glyph glyph-name="Q" unicode="Q" horiz-adv-x="1583" 
d="M1532 717q0 -262 -164 -464t-415 -258v-164h-323v164q-251 56 -415 258t-164 464q0 150 59 287t158 236.5t236.5 158t287.5 58.5t287 -58.5t236.5 -158t158 -236.5t58.5 -287zM953 337q112 48 182 151.5t70 228.5q0 171 -121 292t-292 121t-292.5 -121t-121.5 -292
q0 -125 70 -228.5t182 -151.5v380h323v-380z" />
    <glyph glyph-name="R" unicode="R" horiz-adv-x="1054" 
d="M900 935q-111 -236 -349 -310q238 -74 349 -310q31 -68 49 -146.5t20.5 -111.5t2.5 -56h-163l-164 -1q0 9 -1.5 29t-13 68t-30.5 87q-56 112 -174 136v-319h-324v1433h279h591v-190q0 -25 -3.5 -61.5t-21 -110t-47.5 -137.5zM426 930q123 25 177 143q8 18 14 34h-191
v-177z" />
    <glyph glyph-name="S" unicode="S" horiz-adv-x="1069" 
d="M975 140l-20 -140h-859v477h318l9 -150h234q0 37 -4.5 70t-16 71t-37.5 62.5t-63 28.5q-232 27 -332 147q-49 59 -78 140.5t-37 151.5t-6.5 144.5t6 110t9.5 58.5l26 123h831l4 -413h-308l-23 96h-219q1 -95 10 -129q25 -94 117 -102q209 -16 314 -139
q50 -58 81.5 -139.5t42 -151t11 -146t-2.5 -111t-7 -59.5z" />
    <glyph glyph-name="T" unicode="T" horiz-adv-x="868" 
d="M826 1434v-328h-231v-1106h-324v1106h-230v328h785z" />
    <glyph glyph-name="U" unicode="U" horiz-adv-x="1097" 
d="M671 1434h324v-1434h-278q-192 0 -304 49.5t-205 160.5q-38 46 -64.5 102.5t-40.5 107t-17.5 120t-3 117t10.5 124t16.5 115.5t20.5 116q12 64 17 94h-65v328h410v-163q0 -101 -40 -318q-16 -87 -22.5 -126t-15.5 -116.5t-7 -121t14.5 -92.5t38.5 -78q40 -44 92.5 -67
t85.5 -24l33 -1v1107z" />
    <glyph glyph-name="U" unicode="&#xdc;" horiz-adv-x="1097" 
d="M671 1434h324v-1434h-278q-192 0 -304 49.5t-205 160.5q-38 46 -64.5 102.5t-40.5 107t-17.5 120t-3 117t10.5 124t16.5 115.5t20.5 116q12 64 17 94h-65v328h410v-163q0 -101 -40 -318q-16 -87 -22.5 -126t-15.5 -116.5t-7 -121t14.5 -92.5t38.5 -78q40 -44 92.5 -67
t85.5 -24l33 -1v1107z" />
    <glyph glyph-name="U" unicode="&#xdb;" horiz-adv-x="1097" 
d="M671 1434h324v-1434h-278q-192 0 -304 49.5t-205 160.5q-38 46 -64.5 102.5t-40.5 107t-17.5 120t-3 117t10.5 124t16.5 115.5t20.5 116q12 64 17 94h-65v328h410v-163q0 -101 -40 -318q-16 -87 -22.5 -126t-15.5 -116.5t-7 -121t14.5 -92.5t38.5 -78q40 -44 92.5 -67
t85.5 -24l33 -1v1107z" />
    <glyph glyph-name="U" unicode="&#xda;" horiz-adv-x="1097" 
d="M671 1434h324v-1434h-278q-192 0 -304 49.5t-205 160.5q-38 46 -64.5 102.5t-40.5 107t-17.5 120t-3 117t10.5 124t16.5 115.5t20.5 116q12 64 17 94h-65v328h410v-163q0 -101 -40 -318q-16 -87 -22.5 -126t-15.5 -116.5t-7 -121t14.5 -92.5t38.5 -78q40 -44 92.5 -67
t85.5 -24l33 -1v1107z" />
    <glyph glyph-name="U" unicode="&#xd9;" horiz-adv-x="1097" 
d="M671 1434h324v-1434h-278q-192 0 -304 49.5t-205 160.5q-38 46 -64.5 102.5t-40.5 107t-17.5 120t-3 117t10.5 124t16.5 115.5t20.5 116q12 64 17 94h-65v328h410v-163q0 -101 -40 -318q-16 -87 -22.5 -126t-15.5 -116.5t-7 -121t14.5 -92.5t38.5 -78q40 -44 92.5 -67
t85.5 -24l33 -1v1107z" />
    <glyph glyph-name="V" unicode="V" horiz-adv-x="1228" 
d="M842 1434h324l-141 -1434h-324v0q-114 62 -206 167.5t-150.5 220t-102 254t-64.5 252t-34 230.5h-103v310h414v-84q3 -81 12.5 -171t30.5 -204.5t51.5 -217.5t79.5 -204t110 -169z" />
    <glyph glyph-name="W" unicode="W" horiz-adv-x="1509" 
d="M219 0h-117v1434h324v-915q85 172 131 380t46 373h302q0 -165 46 -373t131 -380v915h324v-1434h-116q-76 0 -146 30t-125.5 80.5t-106 122.5t-88 149.5t-70.5 168.5q-42 -115 -92 -208.5t-115.5 -173.5t-149 -124.5t-178.5 -44.5z" />
    <glyph glyph-name="X" unicode="X" horiz-adv-x="1050" 
d="M998 0h-327q0 176 -147 436q-146 -259 -146 -436h-327q0 98 22 197.5t65.5 197.5t86.5 177t105 177q-61 95 -102 168t-82.5 163t-62 178.5t-20.5 175.5h327q0 -146 134 -376q135 232 135 376h327q0 -87 -20.5 -175.5t-62 -178.5t-82.5 -163t-102 -168q62 -98 105 -177
t86.5 -177t65.5 -197.5t22 -197.5z" />
    <glyph glyph-name="Y" unicode="Y" horiz-adv-x="993" 
d="M940 1434l-282 -1034l-1 -3v-397h-324v402l-282 1032h324l121 -544l120 544h324z" />
    <glyph glyph-name="Y" unicode="&#x178;" horiz-adv-x="993" 
d="M940 1434l-282 -1034l-1 -3v-397h-324v402l-282 1032h324l121 -544l120 544h324z" />
    <glyph glyph-name="Y" unicode="&#xdd;" horiz-adv-x="993" 
d="M940 1434l-282 -1034l-1 -3v-397h-324v402l-282 1032h324l121 -544l120 544h324z" />
    <glyph glyph-name="Z" unicode="Z" horiz-adv-x="983" 
d="M921 1277q0 -68 -11.5 -135t-27.5 -120.5t-45.5 -113t-52.5 -99.5t-63 -94t-63.5 -82.5t-65.5 -79.5q-124 -150 -164 -226h493v-163q0 -52 -14 -103t-31.5 -87t-51 -79t-54 -65.5t-58.5 -61.5q-84 -85 -119.5 -140t-35.5 -127h-327q0 59 10 113t32 102t42 84t55 77.5
t54 62t56 58.5q1 0 1 1v1h-419v186h1q1 70 19 140t41 121.5t66.5 116.5t72 101t80.5 98q61 73 94 115t73 108t60 127h-507v328h860v-164z" />
    <glyph glyph-name="a" unicode="a" horiz-adv-x="1155" 
d="M1071 0h-323l-22 221q-99 -107 -229 -164t-272 -57h-164v164q0 98 19 220.5t62.5 268t104.5 283t155 271t205 227.5h323zM397 360q126 47 204 188t61 323l-12 124q-92 -135 -158.5 -305.5t-94.5 -329.5z" />
    <glyph glyph-name="a" unicode="&#xe5;" horiz-adv-x="1155" 
d="M1071 0h-323l-22 221q-99 -107 -229 -164t-272 -57h-164v164q0 98 19 220.5t62.5 268t104.5 283t155 271t205 227.5h323zM397 360q126 47 204 188t61 323l-12 124q-92 -135 -158.5 -305.5t-94.5 -329.5z" />
    <glyph glyph-name="a" unicode="&#xe4;" horiz-adv-x="1155" 
d="M1071 0h-323l-22 221q-99 -107 -229 -164t-272 -57h-164v164q0 98 19 220.5t62.5 268t104.5 283t155 271t205 227.5h323zM397 360q126 47 204 188t61 323l-12 124q-92 -135 -158.5 -305.5t-94.5 -329.5z" />
    <glyph glyph-name="a" unicode="&#xe3;" horiz-adv-x="1155" 
d="M1071 0h-323l-22 221q-99 -107 -229 -164t-272 -57h-164v164q0 98 19 220.5t62.5 268t104.5 283t155 271t205 227.5h323zM397 360q126 47 204 188t61 323l-12 124q-92 -135 -158.5 -305.5t-94.5 -329.5z" />
    <glyph glyph-name="a" unicode="&#xe2;" horiz-adv-x="1155" 
d="M1071 0h-323l-22 221q-99 -107 -229 -164t-272 -57h-164v164q0 98 19 220.5t62.5 268t104.5 283t155 271t205 227.5h323zM397 360q126 47 204 188t61 323l-12 124q-92 -135 -158.5 -305.5t-94.5 -329.5z" />
    <glyph glyph-name="a" unicode="&#xe1;" horiz-adv-x="1155" 
d="M1071 0h-323l-22 221q-99 -107 -229 -164t-272 -57h-164v164q0 98 19 220.5t62.5 268t104.5 283t155 271t205 227.5h323zM397 360q126 47 204 188t61 323l-12 124q-92 -135 -158.5 -305.5t-94.5 -329.5z" />
    <glyph glyph-name="a" unicode="&#xe0;" horiz-adv-x="1155" 
d="M1071 0h-323l-22 221q-99 -107 -229 -164t-272 -57h-164v164q0 98 19 220.5t62.5 268t104.5 283t155 271t205 227.5h323zM397 360q126 47 204 188t61 323l-12 124q-92 -135 -158.5 -305.5t-94.5 -329.5z" />
    <glyph glyph-name="b" unicode="b" horiz-adv-x="1021" 
d="M940 1270q0 -26 -2.5 -62.5t-21 -124t-50.5 -163.5q-25 -57 -54 -101q43 -96 72 -208.5t39.5 -210.5t13.5 -149t3 -87v-164h-838v1434h838v-164zM586 1106h-160v-232q77 35 118.5 101.5t41.5 130.5zM426 327h176q0 141 -53 284q-56 -20 -123 -31v-253z" />
    <glyph glyph-name="c" unicode="c" 
d="M639 571h328q-13 -276 -183.5 -423.5t-475.5 -147.5h-163v163q0 61 -36 259q-11 59 -16 89.5t-14 89.5t-12 95t-5.5 92.5t1.5 95.5t12 89.5t23 90t37.5 82t52.5 78.5q176 210 570 210h163v-446h-290l-23 111q-119 -24 -169 -84q-31 -37 -43.5 -94.5t-6 -141t14.5 -140
t27 -158.5q19 -101 25 -140q54 12 90.5 34.5t55 55.5t26.5 64.5t11 75.5z" />
    <glyph glyph-name="c" unicode="&#xe7;" 
d="M639 571h328q-13 -276 -183.5 -423.5t-475.5 -147.5h-163v163q0 61 -36 259q-11 59 -16 89.5t-14 89.5t-12 95t-5.5 92.5t1.5 95.5t12 89.5t23 90t37.5 82t52.5 78.5q176 210 570 210h163v-446h-290l-23 111q-119 -24 -169 -84q-31 -37 -43.5 -94.5t-6 -141t14.5 -140
t27 -158.5q19 -101 25 -140q54 12 90.5 34.5t55 55.5t26.5 64.5t11 75.5z" />
    <glyph glyph-name="d" unicode="d" horiz-adv-x="1064" 
d="M939 747q29 -128 45 -278.5t18 -209.5t2 -95v-164h-853v1106h-90v328h252q65 0 130 -17t140 -64.5t139 -121.5t122.5 -199t94.5 -285zM475 327h195q-16 213 -66 409t-129 291v-700z" />
    <glyph glyph-name="e" unicode="e" 
d="M639 571h328q-13 -276 -183.5 -423.5t-475.5 -147.5h-163v164q0 61 -36 259q-14 76 -20.5 115.5t-16.5 115.5t-10.5 124t3.5 117t18 120t40.5 107t64.5 102q176 210 570 210h163v-445h-290l-22 110q-121 -25 -170 -84q-34 -41 -46 -121l164 35l57 -277l-205 -43
q13 -79 22 -127q18 -96 25 -141q54 12 90.5 34.5t55 55.5t26.5 64.5t11 75.5z" />
    <glyph glyph-name="e" unicode="&#xeb;" 
d="M639 571h328q-13 -276 -183.5 -423.5t-475.5 -147.5h-163v164q0 61 -36 259q-14 76 -20.5 115.5t-16.5 115.5t-10.5 124t3.5 117t18 120t40.5 107t64.5 102q176 210 570 210h163v-445h-290l-22 110q-121 -25 -170 -84q-34 -41 -46 -121l164 35l57 -277l-205 -43
q13 -79 22 -127q18 -96 25 -141q54 12 90.5 34.5t55 55.5t26.5 64.5t11 75.5z" />
    <glyph glyph-name="e" unicode="&#xea;" 
d="M639 571h328q-13 -276 -183.5 -423.5t-475.5 -147.5h-163v164q0 61 -36 259q-14 76 -20.5 115.5t-16.5 115.5t-10.5 124t3.5 117t18 120t40.5 107t64.5 102q176 210 570 210h163v-445h-290l-22 110q-121 -25 -170 -84q-34 -41 -46 -121l164 35l57 -277l-205 -43
q13 -79 22 -127q18 -96 25 -141q54 12 90.5 34.5t55 55.5t26.5 64.5t11 75.5z" />
    <glyph glyph-name="e" unicode="&#xe9;" 
d="M639 571h328q-13 -276 -183.5 -423.5t-475.5 -147.5h-163v164q0 61 -36 259q-14 76 -20.5 115.5t-16.5 115.5t-10.5 124t3.5 117t18 120t40.5 107t64.5 102q176 210 570 210h163v-445h-290l-22 110q-121 -25 -170 -84q-34 -41 -46 -121l164 35l57 -277l-205 -43
q13 -79 22 -127q18 -96 25 -141q54 12 90.5 34.5t55 55.5t26.5 64.5t11 75.5z" />
    <glyph glyph-name="e" unicode="&#xe8;" 
d="M639 571h328q-13 -276 -183.5 -423.5t-475.5 -147.5h-163v164q0 61 -36 259q-14 76 -20.5 115.5t-16.5 115.5t-10.5 124t3.5 117t18 120t40.5 107t64.5 102q176 210 570 210h163v-445h-290l-22 110q-121 -25 -170 -84q-34 -41 -46 -121l164 35l57 -277l-205 -43
q13 -79 22 -127q18 -96 25 -141q54 12 90.5 34.5t55 55.5t26.5 64.5t11 75.5z" />
    <glyph glyph-name="f" unicode="f" horiz-adv-x="874" 
d="M822 1106h-396v-226h281v-327h-281v-553h-324v1434h720v-328z" />
    <glyph glyph-name="g" unicode="g" 
d="M500 860h467v-289q-13 -276 -183.5 -423.5t-475.5 -147.5h-163v164q0 61 -36 259q-14 76 -20.5 115.5t-16.5 115.5t-10.5 124t3.5 117t18 120t40.5 107t64.5 102q176 210 570 210h163v-445h-290l-22 110q-121 -25 -170 -84q-31 -37 -43.5 -94t-6 -141t14.5 -140t27 -158
q18 -96 25 -141q96 22 134.5 74.5t46.5 134.5h-101z" />
    <glyph glyph-name="h" unicode="h" horiz-adv-x="1095" 
d="M669 1434h324v-1434h-324v588l-243 30v-618h-324v1434h324v-488l243 -30v518z" />
    <glyph glyph-name="i" unicode="i" horiz-adv-x="528" 
d="M426 0h-324v1434h324v-1434z" />
    <glyph glyph-name="i" unicode="&#xef;" horiz-adv-x="528" 
d="M426 0h-324v1434h324v-1434z" />
    <glyph glyph-name="i" unicode="&#xee;" horiz-adv-x="528" 
d="M426 0h-324v1434h324v-1434z" />
    <glyph glyph-name="i" unicode="&#xed;" horiz-adv-x="528" 
d="M426 0h-324v1434h324v-1434z" />
    <glyph glyph-name="i" unicode="&#xec;" horiz-adv-x="528" 
d="M426 0h-324v1434h324v-1434z" />
    <glyph glyph-name="j" unicode="j" horiz-adv-x="995" 
d="M886 1039q41 -249 46 -362q13 -313 -136 -483q-170 -194 -522 -194h-164q0 6 0.5 18.5t-0.5 54t-4.5 87.5t-13 117.5t-23.5 145.5q-26 139 -28 150h331q12 -60 18 -88q23 -113 30 -154q85 20 126 67q24 28 39 66.5t18 92t3.5 97t-9 114t-15.5 107.5t-19 111
q-17 100 -20 119v1h-427v327h557q3 0 9 0.5t9 0.5h164q-8 -158 31 -395z" />
    <glyph glyph-name="k" unicode="k" horiz-adv-x="1038" 
d="M881 1083q-40 -93 -99 -166q58 -109 97 -260.5t53.5 -298.5t18.5 -224.5t4 -133.5h-164h-163q0 177 -30 389t-88 341q-40 -14 -84 -21v-709h-324v1434h324v-408q101 41 152 166q20 50 32.5 112.5t15 91t2.5 38.5h327q0 -26 -2.5 -63t-21 -124.5t-50.5 -163.5z" />
    <glyph glyph-name="l" unicode="l" horiz-adv-x="864" 
d="M426 327h396v-327h-720v1434h324v-1107z" />
    <glyph glyph-name="m" unicode="m" horiz-adv-x="1540" 
d="M1408 807q31 -89 48.5 -194t19.5 -146t2 -66v-401h-327v401q0 389 -202 509v-910h-324v448q0 55 -10 116t-31 128.5t-62 126t-96 91.5v-910h-324v1434h324v-161q54 -15 107.5 -52t91.5 -81v294h324v-176q159 -32 276.5 -147.5t182.5 -303.5z" />
    <glyph glyph-name="n" unicode="n" horiz-adv-x="1095" 
d="M669 1434h324v-1434h-324v369l-243 285v-654h-324v1434h324v-352l243 -285v637z" />
    <glyph glyph-name="o" unicode="o" horiz-adv-x="1046" 
d="M846 194q-170 -194 -521 -194h-164q0 6 0.5 18.5t-0.5 54t-4.5 87.5t-13 117.5t-23.5 145.5q-47 241 -54 352q-18 292 120 456q173 203 556 203h163q-7 -158 32 -395q41 -250 45 -364q13 -311 -136 -481zM614 986q-17 100 -20 119q-108 -19 -155 -74q-26 -30 -37.5 -80.5
t-12.5 -98.5t8.5 -122.5t18.5 -120.5t25 -124q23 -113 30 -154q84 19 125 67q24 28 39 67t18.5 91.5t3.5 97.5t-9 113.5t-15 107.5t-19 111z" />
    <glyph glyph-name="o" unicode="&#xf6;" horiz-adv-x="1046" 
d="M846 194q-170 -194 -521 -194h-164q0 6 0.5 18.5t-0.5 54t-4.5 87.5t-13 117.5t-23.5 145.5q-47 241 -54 352q-18 292 120 456q173 203 556 203h163q-7 -158 32 -395q41 -250 45 -364q13 -311 -136 -481zM614 986q-17 100 -20 119q-108 -19 -155 -74q-26 -30 -37.5 -80.5
t-12.5 -98.5t8.5 -122.5t18.5 -120.5t25 -124q23 -113 30 -154q84 19 125 67q24 28 39 67t18.5 91.5t3.5 97.5t-9 113.5t-15 107.5t-19 111z" />
    <glyph glyph-name="o" unicode="&#xf5;" horiz-adv-x="1046" 
d="M846 194q-170 -194 -521 -194h-164q0 6 0.5 18.5t-0.5 54t-4.5 87.5t-13 117.5t-23.5 145.5q-47 241 -54 352q-18 292 120 456q173 203 556 203h163q-7 -158 32 -395q41 -250 45 -364q13 -311 -136 -481zM614 986q-17 100 -20 119q-108 -19 -155 -74q-26 -30 -37.5 -80.5
t-12.5 -98.5t8.5 -122.5t18.5 -120.5t25 -124q23 -113 30 -154q84 19 125 67q24 28 39 67t18.5 91.5t3.5 97.5t-9 113.5t-15 107.5t-19 111z" />
    <glyph glyph-name="o" unicode="&#xf4;" horiz-adv-x="1046" 
d="M846 194q-170 -194 -521 -194h-164q0 6 0.5 18.5t-0.5 54t-4.5 87.5t-13 117.5t-23.5 145.5q-47 241 -54 352q-18 292 120 456q173 203 556 203h163q-7 -158 32 -395q41 -250 45 -364q13 -311 -136 -481zM614 986q-17 100 -20 119q-108 -19 -155 -74q-26 -30 -37.5 -80.5
t-12.5 -98.5t8.5 -122.5t18.5 -120.5t25 -124q23 -113 30 -154q84 19 125 67q24 28 39 67t18.5 91.5t3.5 97.5t-9 113.5t-15 107.5t-19 111z" />
    <glyph glyph-name="o" unicode="&#xf3;" horiz-adv-x="1046" 
d="M846 194q-170 -194 -521 -194h-164q0 6 0.5 18.5t-0.5 54t-4.5 87.5t-13 117.5t-23.5 145.5q-47 241 -54 352q-18 292 120 456q173 203 556 203h163q-7 -158 32 -395q41 -250 45 -364q13 -311 -136 -481zM614 986q-17 100 -20 119q-108 -19 -155 -74q-26 -30 -37.5 -80.5
t-12.5 -98.5t8.5 -122.5t18.5 -120.5t25 -124q23 -113 30 -154q84 19 125 67q24 28 39 67t18.5 91.5t3.5 97.5t-9 113.5t-15 107.5t-19 111z" />
    <glyph glyph-name="o" unicode="&#xf2;" horiz-adv-x="1046" 
d="M846 194q-170 -194 -521 -194h-164q0 6 0.5 18.5t-0.5 54t-4.5 87.5t-13 117.5t-23.5 145.5q-47 241 -54 352q-18 292 120 456q173 203 556 203h163q-7 -158 32 -395q41 -250 45 -364q13 -311 -136 -481zM614 986q-17 100 -20 119q-108 -19 -155 -74q-26 -30 -37.5 -80.5
t-12.5 -98.5t8.5 -122.5t18.5 -120.5t25 -124q23 -113 30 -154q84 19 125 67q24 28 39 67t18.5 91.5t3.5 97.5t-9 113.5t-15 107.5t-19 111z" />
    <glyph glyph-name="p" unicode="p" horiz-adv-x="1015" 
d="M955 1273q1 -20 0 -56t-11 -121t-28 -169t-57 -190t-93 -195t-142 -172.5t-198 -133.5v-236h-324v1434h850zM426 614q149 166 190 492h-190v-492z" />
    <glyph glyph-name="q" unicode="q" horiz-adv-x="1046" 
d="M937 1039q41 -250 45 -366q12 -310 -136 -479q-62 -71 -149 -116v-247h-324v170q-16 -1 -48 -1h-164q0 6 0.5 18.5t-0.5 54t-4.5 87.5t-13 117.5t-23.5 145.5q-47 241 -54 352q-18 292 120 456q173 203 556 203h163q-7 -158 32 -395zM439 1031q-26 -30 -37.5 -80.5
t-12.5 -98.5t8.5 -122.5t18.5 -120.5t25 -124q23 -113 30 -154q84 19 125 67q29 33 43.5 87.5t17.5 106t-5 132.5t-15.5 128.5t-22.5 133.5q-17 100 -20 119q-108 -19 -155 -74z" />
    <glyph glyph-name="r" unicode="r" horiz-adv-x="1026" 
d="M868 930q-37 -82 -87 -146q58 -140 98 -327.5t52 -298.5t12 -158h-327q0 122 -30.5 288t-79.5 304q-52 -16 -80 -21v-571h-324v1434h841v-164q0 -25 -2.5 -61t-21 -121t-51.5 -158zM586 1106h-160v-221q67 30 110.5 86.5t49.5 134.5z" />
    <glyph glyph-name="s" unicode="s" horiz-adv-x="972" 
d="M561 865q44 -28 67 -43t65.5 -46.5t67.5 -56t57 -63.5t49.5 -76t30 -86t12.5 -101q0 -104 -47.5 -191t-135.5 -144q-138 -89 -332 -89q-84 0 -167.5 22.5t-125.5 44.5l-41 22v418h328v-159q39 -13 82 -11.5t77.5 25.5t34.5 62q0 46 -45 87t-151 108q-40 25 -62 39.5
t-61.5 43.5t-63 52t-53.5 58t-46.5 69t-28 77.5t-11.5 90.5q0 192 138 307q57 47 135.5 75.5t146 37t141 7t107 -5.5t57.5 -8l113 -24v-387h-290l-15 98q-45 7 -90.5 0t-80 -33t-34.5 -67q0 -8 3 -17t9.5 -18t13.5 -16.5t19.5 -17t21.5 -16.5t25 -17.5t25.5 -16.5t27.5 -17
t27 -17z" />
    <glyph glyph-name="t" unicode="t" horiz-adv-x="886" 
d="M836 1434v-328h-230v-1106h-324v1106h-231v328h785z" />
    <glyph glyph-name="u" unicode="u" horiz-adv-x="1095" 
d="M669 1434h324v-1434h-363q-143 0 -264.5 70.5t-192.5 192t-71 264.5v907h324v-864q0 -100 71 -171.5t172 -71.5v1107z" />
    <glyph glyph-name="u" unicode="&#xfc;" horiz-adv-x="1095" 
d="M669 1434h324v-1434h-363q-143 0 -264.5 70.5t-192.5 192t-71 264.5v907h324v-864q0 -100 71 -171.5t172 -71.5v1107z" />
    <glyph glyph-name="u" unicode="&#xfb;" horiz-adv-x="1095" 
d="M669 1434h324v-1434h-363q-143 0 -264.5 70.5t-192.5 192t-71 264.5v907h324v-864q0 -100 71 -171.5t172 -71.5v1107z" />
    <glyph glyph-name="u" unicode="&#xfa;" horiz-adv-x="1095" 
d="M669 1434h324v-1434h-363q-143 0 -264.5 70.5t-192.5 192t-71 264.5v907h324v-864q0 -100 71 -171.5t172 -71.5v1107z" />
    <glyph glyph-name="u" unicode="&#xf9;" horiz-adv-x="1095" 
d="M669 1434h324v-1434h-363q-143 0 -264.5 70.5t-192.5 192t-71 264.5v907h324v-864q0 -100 71 -171.5t172 -71.5v1107z" />
    <glyph glyph-name="v" unicode="v" horiz-adv-x="1013" 
d="M628 1434h324l-162 -1434h-567l-162 1434h324l122 -1077z" />
    <glyph glyph-name="w" unicode="w" horiz-adv-x="1507" 
d="M1080 1434h324v-1434h-646q-394 0 -570 210q-30 36 -52.5 78.5t-37.5 82t-23 90t-12 89.5t-1.5 95.5t5.5 92.5t12 95t14 89.5t16 89.5q36 198 36 259v163h327v-163q0 -95 -41 -318q-19 -102 -27 -158.5t-14.5 -140t6 -141t43.5 -94.5q45 -54 155 -77l2 2v1090h324
l2 -1107h158v1107z" />
    <glyph glyph-name="x" unicode="x" horiz-adv-x="1058" 
d="M996 1434q0 -92 -23 -185t-70.5 -191.5t-89 -170.5t-110.5 -179l279 -708h-341l-144 366q-108 -209 -108 -366h-328q0 99 22.5 199t67 199t87.5 178t106 178l-269 680h341l136 -345q117 209 117 345h327z" />
    <glyph glyph-name="y" unicode="y" horiz-adv-x="1069" 
d="M704 1434h324l-351 -1434h-324l93 380q-76 74 -139.5 171.5t-104 190.5t-72 196t-47.5 181.5t-26.5 155.5t-12.5 109t-3 50h333q7 -145 47.5 -324t123.5 -326z" />
    <glyph glyph-name="y" unicode="&#xfd;" horiz-adv-x="1069" 
d="M704 1434h324l-351 -1434h-324l93 380q-76 74 -139.5 171.5t-104 190.5t-72 196t-47.5 181.5t-26.5 155.5t-12.5 109t-3 50h333q7 -145 47.5 -324t123.5 -326z" />
    <glyph glyph-name="z" unicode="z" horiz-adv-x="931" 
d="M869 1106l-455 -779h455v-327h-808v327l455 779h-455v328h808v-328z" />
    <glyph glyph-name="verticalbar" unicode="|" horiz-adv-x="528" 
d="M426 -165h-324v1742h324v-1742z" />
    <glyph glyph-name="nonbreakingspace" unicode="&#xa0;" horiz-adv-x="716" 
 />
    <glyph glyph-name="exclamdown" unicode="&#xa1;" horiz-adv-x="598" 
d="M157 974h283l41 -974h-364zM299 1050q-82 0 -139.5 57.5t-57.5 139.5t57.5 139t139.5 57t139 -57t57 -139t-57 -139.5t-139 -57.5z" />
    <glyph glyph-name="softhyphen" unicode="&#xad;" horiz-adv-x="0" 
 />
    <glyph glyph-name="questiondown" unicode="&#xbf;" horiz-adv-x="1021" 
d="M593 524l327 -2l-1 -473q-8 -4 -22 -9.5t-58.5 -20t-89.5 -25t-108 -17t-121 -3t-122.5 23.5t-117.5 57q-85 59 -131.5 149t-46.5 194q0 67 14 129.5t31 104.5t49.5 90t51.5 70.5t54 61.5q55 61 75 94.5t20 79.5h327q0 -56 -12.5 -108.5t-28 -89t-44.5 -78.5t-46.5 -62.5
t-48.5 -55.5q-6 -7 -27.5 -30t-27.5 -30t-21.5 -26.5t-20 -31t-12.5 -30.5t-10.5 -38t-2.5 -42q0 -40 21 -63t50 -27.5t56 -1.5t43 11zM553 1091q-73 0 -124.5 51.5t-51.5 124.5t51.5 125t124.5 52t124.5 -52t51.5 -125t-51.5 -124.5t-124.5 -51.5z" />
    <glyph glyph-name="Ntilde" unicode="&#xd1;" horiz-adv-x="1095" 
d="M467 1620q-27 -27 -61 -81l-208 129q110 178 227 201q42 8 84.5 -2.5t63.5 -23t50 -33.5q2 -1 9.5 -7t11.5 -8q31 23 75 88l203 -139q-118 -173 -240 -195q-17 -3 -33.5 -3.5t-32.5 2.5t-28 5.5t-27 9.5t-23 10.5t-22.5 13t-18.5 12.5t-17 12q-2 1 -6.5 4t-6.5 5z
M669 1434h324v-1434h-324v369l-243 285v-654h-324v1434h324v-352l243 -285v637z" />
    <glyph glyph-name="eth" unicode="&#xf0;" horiz-adv-x="1044" 
d="M918 747q29 -128 45 -278.5t18 -209.5t2 -95v-164h-852v498h-90v327h90v281h-90v328h251q65 0 130 -17t140 -64.5t139 -121.5t122.5 -199t94.5 -285zM454 327h195q-16 213 -66 409t-129 291v-202h38l54 -327h-92v-171z" />
    <glyph glyph-name="ntilde" unicode="&#xf1;" horiz-adv-x="1095" 
d="M467 1620q-27 -27 -61 -81l-208 129q110 178 227 201q42 8 84.5 -2.5t63.5 -23t50 -33.5q2 -1 9.5 -7t11.5 -8q31 23 75 88l203 -139q-118 -173 -240 -195q-17 -3 -33.5 -3.5t-32.5 2.5t-28 5.5t-27 9.5t-23 10.5t-22.5 13t-18.5 12.5t-17 12q-2 1 -6.5 4t-6.5 5z
M669 1434h324v-1434h-324v369l-243 285v-654h-324v1434h324v-352l243 -285v637z" />
    <glyph glyph-name="oslash" unicode="&#xf8;" horiz-adv-x="1044" 
d="M935 1039q41 -250 45 -364q13 -311 -136 -481q-159 -181 -478 -193l-68 -209h-138l68 208h-69q0 6 0.5 18.5t-0.5 54t-4.5 87.5t-13 117.5t-23.5 145.5q-47 241 -54 352q-18 292 120 456q161 191 513 202l69 211h137l-69 -210h69q-7 -158 32 -395zM437 1031
q-35 -41 -44.5 -119t-1.5 -153t28 -176l170 522q-108 -21 -152 -74zM594 398q36 42 50 115.5t10.5 147t-17.5 170.5l-163 -498q83 22 120 65z" />
    <glyph glyph-name="ydieresis" unicode="&#xff;" horiz-adv-x="1069" 
d="M371 1532q-54 0 -92 38t-38 92t38 92.5t92 38.5t92 -38.5t38 -92.5t-38 -92t-92 -38zM698 1532q-54 0 -92.5 38t-38.5 92t38.5 92.5t92.5 38.5t92 -38.5t38 -92.5t-38 -92t-92 -38zM704 1434h324l-351 -1434h-324l93 380q-76 74 -139.5 171.5t-104 190.5t-72 196
t-47.5 181.5t-26.5 155.5t-12.5 109t-3 50h333q7 -145 47.5 -324t123.5 -326z" />
    <glyph glyph-name="Abreve" unicode="&#x102;" horiz-adv-x="1085" 
d="M537 1434h324l141 -1434h-324l-13 134h-297q-10 -73 -10 -134h-327q0 103 19.5 205.5t44 178t72.5 170.5t78.5 147t87.5 144q110 178 163.5 314.5t40.5 274.5zM461 444h173l-27 273q-92 -149 -146 -273zM664 1524q-140 0 -239 87t-99 209h246q0 -17 27 -33.5t65 -16.5
t65 16.5t27 33.5h246q0 -122 -99 -209t-239 -87z" />
    <glyph glyph-name="abreve" unicode="&#x103;" horiz-adv-x="1155" 
d="M1071 0h-323l-22 221q-99 -107 -229 -164t-272 -57h-164v164q0 98 19 220.5t62.5 268t104.5 283t155 271t205 227.5h323zM397 360q126 47 204 188t61 323l-12 124q-92 -135 -158.5 -305.5t-94.5 -329.5zM670 1524q-140 0 -239 87t-99 209h246q0 -17 27 -33.5t65 -16.5
t65 16.5t27 33.5h246q0 -122 -99 -209t-239 -87z" />
    <glyph glyph-name="Cacute" unicode="&#x106;" 
d="M662 989l-22 118h-250q3 -104 22 -196t38 -142t55 -131q47 -109 57 -137q74 132 78 224h327q-6 -123 -60 -252t-107 -209q-175 -264 -342 -264h-164q1 10 1.5 27.5t-2 73.5t-10 112.5t-27.5 137.5t-50 155q-2 6 -18 44.5t-20.5 49.5t-19 49.5t-20 57t-17.5 58.5t-17 67
t-13 69.5t-11 80t-6 84t-3 94.5v274h906v-445h-305zM765 1897l-78 -365h-324l78 365h324z" />
    <glyph glyph-name="cacute" unicode="&#x107;" 
d="M639 571h328q-13 -276 -183.5 -423.5t-475.5 -147.5h-163v163q0 61 -36 259q-11 59 -16 89.5t-14 89.5t-12 95t-5.5 92.5t1.5 95.5t12 89.5t23 90t37.5 82t52.5 78.5q176 210 570 210h163v-446h-290l-23 111q-119 -24 -169 -84q-31 -37 -43.5 -94.5t-6 -141t14.5 -140
t27 -158.5q19 -101 25 -140q54 12 90.5 34.5t55 55.5t26.5 64.5t11 75.5zM836 1897l-78 -365h-324l78 365h324z" />
    <glyph glyph-name="Ccaron" unicode="&#x10c;" horiz-adv-x="1030" 
d="M662 989l-22 118h-250q3 -104 22 -196t38 -142t55 -131q49 -114 57 -136q74 132 78 223h327q-6 -123 -60 -252t-107 -209q-175 -264 -342 -264h-164h-136v326h105q-20 89 -57 180q-2 6 -18 44.5t-20.5 49.5t-19 49.5t-20 57t-17.5 58.5t-17 67t-13 69.5t-11 80t-6 84
t-3 94.5v274h906v-445h-305zM781 1630l-267 -93l-266 93v245l266 -93l267 93v-245z" />
    <glyph glyph-name="ccaron" unicode="&#x10d;" 
d="M639 571h328q-13 -276 -183.5 -423.5t-475.5 -147.5h-163v164q0 61 -36 259q-14 76 -20.5 115.5t-16.5 115.5t-10.5 124t3.5 117t18 120t40.5 107t64.5 102q176 210 570 210h163v-445h-290l-23 110q-119 -24 -169 -84q-31 -37 -43.5 -94t-6 -141t14.5 -140t27 -158
q18 -96 25 -141q54 12 90.5 34.5t55 55.5t26.5 64.5t11 75.5zM821 1630l-266 -93l-267 93v245l267 -94l266 94v-245z" />
    <glyph glyph-name="dmacron" unicode="&#x111;" horiz-adv-x="1105" 
d="M980 747q29 -128 45 -278.5t18 -209.5t2 -95v-164h-853v498h-90v327h90v281h-90v328h252q65 0 130 -17t140 -64.5t139 -121.5t122.5 -199t94.5 -285zM516 327h194q-16 214 -65.5 410t-128.5 290v-202h37l55 -327h-92v-171z" />
    <glyph glyph-name="hbar" unicode="&#x127;" horiz-adv-x="1040" 
d="M774 811q52 -56 91 -125.5t59.5 -138.5t33.5 -131.5t16 -123t3.5 -92t-1.5 -57.5v-143h-327v161q3 52 -2.5 120t-34 161t-79.5 147q-24 27 -59 46v-635h-324v958h-140v327h140v149h324v-149h292v-327h-213q126 -46 221 -147z" />
    <glyph glyph-name="Scaron" unicode="&#x160;" horiz-adv-x="1069" 
d="M850 747q50 -58 81.5 -139.5t42 -150.5t11 -146t-2.5 -111t-7 -60l-20 -140h-859v477h318l9 -150h234q0 37 -4.5 70t-16 71t-37.5 62.5t-63 28.5q-232 27 -332 147q-49 59 -78 140.5t-37 151.5t-6.5 144.5t6 110t9.5 58.5l26 123h831v-395h-308l-19 78h-219
q1 -95 10 -129q25 -94 117 -102q209 -16 314 -139zM800 1630l-266 -93l-267 93v245l267 -94l266 94v-245z" />
    <glyph glyph-name="scaron" unicode="&#x161;" horiz-adv-x="972" 
d="M561 865q44 -28 67 -43t65.5 -46.5t67.5 -56t57 -63.5t49.5 -76t30 -86t12.5 -101q0 -105 -47 -191.5t-136 -143.5q-138 -89 -332 -89q-84 0 -167.5 22.5t-125.5 44.5l-41 22v418h328v-159q39 -13 82 -11.5t77.5 25.5t34.5 62q0 46 -45 87t-151 108q-40 25 -62 39.5
t-61.5 43.5t-63 52t-53.5 58t-46.5 69t-28 77.5t-11.5 90.5q0 192 138 307q57 47 135.5 75.5t146 37t141 7t107 -5.5t57.5 -8l113 -24v-387h-290l-15 98q-45 7 -90.5 0t-80 -33t-34.5 -67q0 -8 3 -17t9.5 -18t13.5 -16.5t19.5 -17t21.5 -16.5t25 -17.5t25.5 -16.5t27.5 -17
t27 -17zM752 1630l-266 -93l-267 93v245l267 -94l266 94v-245z" />
    <glyph glyph-name="Zcaron" unicode="&#x17d;" horiz-adv-x="931" 
d="M692 1617l-227 -79l-227 79v208l227 -79l227 79v-208zM61 1434h808v-328l-455 -779h455v-327h-808v327l455 779h-455v328z" />
    <glyph glyph-name="zcaron" unicode="&#x17e;" horiz-adv-x="931" 
d="M692 1617l-227 -79l-227 79v208l227 -79l227 79v-208zM61 1434h808v-328l-455 -779h455v-327h-808v327l455 779h-455v328z" />
    <glyph glyph-name="schwa" unicode="&#x259;" 
d="M840 1224q38 -46 64.5 -102t40.5 -107t18 -120t3.5 -117t-10.5 -124t-16.5 -115.5t-20.5 -115.5q-36 -198 -36 -259v-164h-163q-305 0 -475.5 147.5t-183.5 423.5v289h578q-6 102 -50 155q-49 59 -170 84l-22 -110h-291v445h164q394 0 570 -210zM572 341q7 45 25 141
q2 11 6 33.5t6 34.5h-218q8 -82 46.5 -134.5t134.5 -74.5z" />
    <glyph glyph-name="Iocyrillic" unicode="&#x401;" horiz-adv-x="1101" 
d="M428 1532q-54 0 -92.5 38.5t-38.5 92.5t38.5 92t92.5 38t92 -38t38 -92t-38 -92.5t-92 -38.5zM754 1532q-54 0 -92 38.5t-38 92.5t38 92t92 38t92.5 -38t38.5 -92t-38.5 -92.5t-92.5 -38.5zM402 1107q-28 -90 -7 -195l150 75l140 -280l-173 -87q10 -18 15 -28
q48 -91 71 -196q84 83 108 225h329q-9 -80 -40 -166t-83.5 -167t-118 -145.5t-149 -103.5t-170.5 -39h-258q6 6 16 17.5t30 53t28 88.5t-3 123t-50 158q-7 15 -22 46q-27 56 -41 87t-39 90.5t-36 102.5t-24.5 104t-13 114t6.5 115t27 124.5t55 124.5l47 86h842v-430h-305
l-23 103h-309z" />
    <glyph glyph-name="Gjecyrillic" unicode="&#x403;" horiz-adv-x="888" 
d="M102 1434h735v-481h-293l-10 153h-108v-1106h-324v1434zM720 1897l-77 -365h-324l78 365h323z" />
    <glyph glyph-name="Dzecyrillic" unicode="&#x405;" horiz-adv-x="1067" 
d="M975 140l-20 -140h-859v477h318l9 -150h234q0 37 -4.5 70t-16 71t-37.5 62.5t-63 28.5q-232 27 -332 147q-49 59 -78 140.5t-37 151.5t-6.5 144.5t6 110t9.5 58.5l26 123h831l4 -413h-308l-23 96h-219q1 -95 10 -129q25 -94 117 -102q209 -16 314 -139
q50 -58 81.5 -139.5t42 -151t11 -146t-2.5 -111t-7 -59.5z" />
    <glyph glyph-name="Icyrillic" unicode="&#x406;" horiz-adv-x="669" 
d="M608 1106h-111v-779h111v-327h-547v327h112v779h-112v328h547v-328z" />
    <glyph glyph-name="Yicyrillic" unicode="&#x407;" horiz-adv-x="690" 
d="M71 1434h547v-328h-111v-779h111v-327h-547v327h112v779h-112v328zM302 1613q-21 -50 -71 -71t-99 0q-50 21 -71 71t0 99q21 50 71 71t99 0q50 -21 71 -71t0 -99zM508 1532q-54 0 -92 38t-38 92t38 92.5t92 38.5t92 -38.5t38 -92.5t-38 -92t-92 -38z" />
    <glyph glyph-name="Jecyrillic" unicode="&#x408;" horiz-adv-x="1036" 
d="M953 1433v-327h-57q2 -17 11 -67q41 -250 45 -366q12 -310 -136 -479q-170 -194 -521 -194h-164q0 6 0.5 18.5t-0.5 54t-4.5 87.5t-13 117.5t-23.5 145.5q-3 18 -13.5 69.5t-15.5 80.5h332q12 -60 18 -88q23 -113 30 -154q84 19 125 67q24 28 39 67t18.5 91.5t3.5 97.5
t-9 113.5t-15 107.5t-19 111q-17 100 -20 119v1h-184l-22 -118h-291v445h626q3 0 9 0.5t9 0.5h164v-1h78z" />
    <glyph glyph-name="Ljecyrillic" unicode="&#x409;" horiz-adv-x="1536" 
d="M1403 570q31 -89 48.5 -194t19.5 -146t2 -66v-164h-785l-70 717q-115 -186 -182.5 -361t-67.5 -356h-327q0 103 19.5 205.5t44 178t72.5 170.5t78.5 147t87.5 144q110 178 163.5 314.5t40.5 274.5h324l40 -408q171 -25 297 -141.5t195 -314.5zM980 327h149
q0 109 -48.5 207t-135.5 143z" />
    <glyph glyph-name="Njecyrillic" unicode="&#x40a;" horiz-adv-x="1517" 
d="M979 1036q226 -34 351 -192t125 -412v-11v-29.5t-0.5 -42t-0.5 -49.5v-51v-47.5v-37.5v-164h-163q-395 0 -571 210q-89 107 -112.5 245.5t-5.5 305.5l-176 22v-781h-324v1434h324v-326l228 -28q23 127 23 189v163h327v-163q0 -87 -25 -235zM1128 342v91
q0 134 -47.5 200.5t-154.5 80.5q-21 -215 46 -295q45 -54 156 -77z" />
    <glyph glyph-name="Tshecyrillic" unicode="&#x40b;" horiz-adv-x="1048" 
d="M784 811q52 -56 91 -125.5t59.5 -138.5t33.5 -131.5t16 -123t3.5 -92t-1.5 -57.5v-143h-327l1 161q3 52 -2.5 120t-34 161t-79.5 147q-23 26 -60 46v-635h-324v1105h-140v327h140v2h324v-2h292v-327h-292v-125q180 -40 300 -169z" />
    <glyph glyph-name="Ushortcyrillic" unicode="&#x40e;" horiz-adv-x="1112" 
d="M555 1524q-139 0 -238 87t-99 209h245q0 -17 27 -33.5t65 -16.5t65 16.5t27 33.5h246q0 -122 -99 -209t-239 -87zM780 730q83 -56 131.5 -145t48.5 -193q0 -169 -119.5 -288.5t-288.5 -119.5t-288.5 119.5t-119.5 288.5q0 105 50 195t135 146q-24 35 -46 66
q-56 79 -87 128t-76 136.5t-67 179.5t-22 191h327q0 -62 15 -121t48 -120.5t57.5 -99.5t71.5 -105q1 -1 2.5 -4t2.5 -4q4 6 6 8q47 67 71.5 105t57.5 99.5t48 120.5t15 121h327q0 -99 -22 -191t-67 -179.5t-76 -136.5t-87 -128zM552 311q34 0 57.5 23.5t23.5 57.5
t-23.5 57.5t-57.5 23.5t-57.5 -23.5t-23.5 -57.5t23.5 -57.5t57.5 -23.5z" />
    <glyph glyph-name="Dzhecyrillic" unicode="&#x40f;" horiz-adv-x="1083" 
d="M657 1434h324v-1434h-162v-175h-324v209q-182 50 -287 176q-38 46 -64.5 102.5t-40.5 107t-17.5 120t-3 117t10.5 124t16.5 115.5t20.5 116q35 192 35 259v163h327v-163q0 -101 -40 -318q-19 -102 -27 -158.5t-14.5 -140t6 -141t43.5 -94.5q45 -54 155 -77l42 -1v1093z
" />
    <glyph glyph-name="Acyrillic" unicode="&#x410;" horiz-adv-x="1083" 
d="M678 0l-13 134h-297q-10 -73 -10 -134h-327q0 103 19.5 205.5t44 178t72.5 170.5t78.5 147t87.5 144q110 178 163.5 314.5t40.5 274.5h324l141 -1434h-324zM461 444h173l-27 273q-92 -149 -146 -273z" />
    <glyph glyph-name="Becyrillic" unicode="&#x411;" horiz-adv-x="1085" 
d="M692 53q-149 -58 -426 -58h-164v1444h860v-417h-305l-22 90h-205v-121q65 -18 113.5 -33t110 -40t105 -51t89 -65t73.5 -83.5t45.5 -104.5t17.5 -129q0 -153 -75.5 -265t-216.5 -167zM657 485q0 54 -50.5 90t-176.5 75v-321q60 6 103 17.5t66.5 25t37 33.5t17 37.5
t3.5 42.5z" />
    <glyph glyph-name="Vecyrillic" unicode="&#x412;" horiz-adv-x="1058" 
d="M806 602q52 -60 86.5 -136t46 -143t15 -104t2.5 -59l-4 -160h-850v1434h844l9 -155q1 -13 -0.5 -50.5t-9 -114t-22 -156t-45 -178t-72.5 -178.5zM624 1106h-198v-332q63 -1 124 -17q74 169 74 349zM426 327h170q0 48 -44.5 89.5t-125.5 46.5v-136z" />
    <glyph glyph-name="Gecyrillic" unicode="&#x413;" horiz-adv-x="921" 
d="M102 1434h768v-481h-292l-10 153h-142v-1106h-324v1434z" />
    <glyph glyph-name="Decyrillic" unicode="&#x414;" horiz-adv-x="1130" 
d="M958 327h130v-496h-324v169h-420v-169h-324v496h137q19 134 57 243q61 177 168.5 289t251.5 152v95h-435v328h759v-1107zM488 327h146v326q-70 -52 -108 -142t-38 -184z" />
    <glyph glyph-name="Iecyrillic" unicode="&#x415;" horiz-adv-x="1103" 
d="M404 1107q-27 -94 -7 -195l150 75l140 -280l-173 -87q10 -18 15 -28q48 -91 71 -196q84 83 108 225h330q-9 -80 -40.5 -166t-84 -167t-117.5 -145.5t-149 -103.5t-171 -39h-258q6 6 16 17.5t30 53t28 88.5t-3 123t-50 158q-7 15 -22 46q-27 56 -41 87t-39 90.5t-36 102.5
t-24.5 104t-13 114t6.5 115t27 124.5t55 124.5l47 86h842v-430h-305l-23 103h-309z" />
    <glyph glyph-name="Zhecyrillic" unicode="&#x416;" horiz-adv-x="1482" 
d="M1326 1083q-40 -93 -99 -166q58 -109 97 -260.5t53.5 -298.5t18.5 -224.5t4 -133.5h-163h-164q0 177 -30 389t-88 341q-26 -9 -52 -15v-715h-324v715q-26 6 -52 15q-58 -129 -88 -341t-30 -389h-163h-164q0 56 4 133.5t18.5 224.5t53.5 298.5t97 260.5q-59 73 -99 166
q-32 76 -50.5 163.5t-21 124.5t-2.5 63h327q0 -10 2.5 -38.5t15 -91t32.5 -112.5q42 -105 120 -151v393h324v-393q79 46 121 151q20 50 32.5 113t14.5 90.5t2 38.5h327q0 -26 -2.5 -63t-21 -124.5t-50.5 -163.5z" />
    <glyph glyph-name="Zecyrillic" unicode="&#x417;" horiz-adv-x="1003" 
d="M921 1277q0 -68 -11.5 -135t-27.5 -120.5t-45.5 -113t-52.5 -99.5t-63 -94t-63.5 -82.5t-65.5 -79.5q-124 -150 -164 -226h493v-163q0 -52 -14 -103t-31.5 -87t-51 -79t-54 -65.5t-58.5 -61.5q-84 -85 -119.5 -140t-35.5 -127h-327q0 59 10 113t32 102t42 84t55 77.5
t54 62t56 58.5q1 0 1 1v1h-419v186h1q1 70 19 140t41 121.5t66.5 116.5t72 101t80.5 98q61 73 94 115t73 108t60 127h-507v328h860v-164z" />
    <glyph glyph-name="Iicyrillic" unicode="&#x418;" horiz-adv-x="1136" 
d="M870 1434h163v-1434h-323v762q0 -1 -3 -10q-123 -406 -267 -606q-106 -145 -206 -146h-132v1434h324v-686q82 262 108 330q93 244 208 318q59 38 128 38z" />
    <glyph glyph-name="Iishortcyrillic" unicode="&#x419;" horiz-adv-x="1136" 
d="M870 1434h163v-1434h-323v762q0 -1 -3 -10q-123 -406 -267 -606q-106 -145 -206 -146h-132v1434h324v-686q82 262 108 330q93 244 208 318q59 38 128 38zM568 1524q-140 0 -239 87t-99 209h246q0 -17 27 -33.5t65 -16.5t65 16.5t27 33.5h246q0 -122 -99 -209t-239 -87z
" />
    <glyph glyph-name="Kacyrillic" unicode="&#x41a;" horiz-adv-x="1034" 
d="M426 650q162 -17 283.5 -102.5t190.5 -232.5q31 -68 49 -146.5t20.5 -111.5t2.5 -56h-163l-164 -1q0 9 -1.5 29t-13 68t-30.5 87q-56 112 -174 136v-319h-324v1433h324v-318q123 25 177 143q18 38 28.5 83.5t12 64.5t1.5 27h327q0 -23 -2.5 -56t-20.5 -111t-49 -146
q-69 -147 -190.5 -232.5t-283.5 -102.5v-136z" />
    <glyph glyph-name="Elcyrillic" unicode="&#x41b;" horiz-adv-x="1085" 
d="M1002 0h-324l-66 673h-1q-43 -69 -65 -106t-57.5 -101t-54 -111t-39 -108t-29 -122t-8.5 -125h-327q0 103 19.5 205.5t44.5 178.5t72 170.5t78.5 147t87.5 143.5q14 22 52.5 83t52 83.5t40 73.5t36.5 84t20 81t11 98l-8 86h324z" />
    <glyph glyph-name="Emcyrillic" unicode="&#x41c;" horiz-adv-x="1529" 
d="M1103 1434h324v-1434h-324v685q-73 -43 -119.5 -125t-63 -164.5t-16.5 -172.5v-223h-324v685q-202 -120 -202 -509v-176h-327v176q0 25 2 66t19.5 146t48.5 194q65 188 182.5 303.5t276.5 147.5v73h-362v328h686v-518q33 40 90.5 78t108.5 57v383z" />
    <glyph glyph-name="Encyrillic" unicode="&#x41d;" horiz-adv-x="1095" 
d="M669 1434h324v-1434h-324v588l-243 30v-618h-324v1434h324v-488l243 -30v518z" />
    <glyph glyph-name="Ocyrillic" unicode="&#x41e;" horiz-adv-x="1583" 
d="M1532 717q0 -150 -58.5 -287.5t-158 -236.5t-236.5 -158t-287 -59t-287.5 59t-236.5 158t-158 236.5t-59 287.5t59 287t158 236.5t236.5 158t287.5 58.5t287 -58.5t236.5 -158t158 -236.5t58.5 -287zM1205 717q0 171 -121 292t-292 121t-292.5 -121t-121.5 -292
t121.5 -292t292.5 -121t292 121t121 292z" />
    <glyph glyph-name="Pecyrillic" unicode="&#x41f;" horiz-adv-x="1058" 
d="M845 1349q39 -65 66 -138t42 -136.5t20 -146t4.5 -140t-9 -146t-15 -136.5t-19.5 -138q-37 -257 -37 -368h-327q0 134 41 415q18 121 25.5 187t13 164.5t-5.5 177.5t-37 149q-104 -19 -181 -71v-1022h-324v1434h324v-58q132 52 279 52h93z" />
    <glyph glyph-name="Ercyrillic" unicode="&#x420;" horiz-adv-x="1013" 
d="M102 1434h860v-164q0 -68 -11.5 -135t-27.5 -120.5t-45.5 -113t-52.5 -99.5t-63 -94t-63.5 -82.5t-65.5 -79.5q-111 -133 -157 -211t-46 -161h-4v-174h-324v1434zM426 809q143 174 183 297h-183v-297z" />
    <glyph glyph-name="Escyrillic" unicode="&#x421;" horiz-adv-x="1030" 
d="M662 989l-22 118h-250q3 -104 22 -196t38 -142t55 -131q49 -114 57 -136q74 132 78 223h327q-6 -123 -60 -252t-107 -209q-175 -264 -342 -264h-164h-139v326h108q-20 89 -57 180q-2 6 -18 44.5t-20.5 49.5t-19 49.5t-20 57t-17.5 58.5t-17 67t-13 69.5t-11 80t-6 84
t-3 94.5v274h906v-445h-305z" />
    <glyph glyph-name="Tecyrillic" unicode="&#x422;" horiz-adv-x="1540" 
d="M1408 807q31 -89 48.5 -194t19.5 -146t2 -66v-401h-327v401q0 389 -202 509v-910h-324v448q0 55 -10 116t-31 128.5t-62 126t-96 91.5v-910h-324v1434h324v-161q54 -15 107.5 -52t91.5 -81v294h324v-176q159 -32 276.5 -147.5t182.5 -303.5z" />
    <glyph glyph-name="Ucyrillic" unicode="&#x423;" horiz-adv-x="1112" 
d="M780 730q83 -56 131.5 -145t48.5 -193q0 -169 -119.5 -288.5t-288.5 -119.5t-288.5 119.5t-119.5 288.5q0 105 50 195t135 146q-24 35 -46 66q-56 79 -87 128t-76 136.5t-67 179.5t-22 191h327q0 -62 15 -121t48 -120.5t57.5 -99.5t71.5 -105q1 -1 2.5 -4t2.5 -4q4 6 6 8
q47 67 71.5 105t57.5 99.5t48 120.5t15 121h327q0 -99 -22 -191t-67 -179.5t-76 -136.5t-87 -128zM552 311q34 0 57.5 23.5t23.5 57.5t-23.5 57.5t-57.5 23.5t-57.5 -23.5t-23.5 -57.5t23.5 -57.5t57.5 -23.5z" />
    <glyph glyph-name="Efcyrillic" unicode="&#x424;" horiz-adv-x="1411" 
d="M867 1376q102 -54 183 -139t130.5 -173.5t85 -193.5t51 -186t23.5 -165.5t8.5 -117.5t-0.5 -55l-2 -161h-479v-185h-324v185h-479l-2 161q-1 21 -0.5 54.5t9 118t24 166t51 186.5t84.5 193.5t130.5 174t182.5 139.5v56h324v-58zM401 513h142v440q-70 -95 -106 -215
t-36 -225zM867 513h143q0 107 -36.5 227t-106.5 215v-442z" />
    <glyph glyph-name="Khacyrillic" unicode="&#x425;" horiz-adv-x="1071" 
d="M1008 0h-327q0 177 -146 436q-146 -259 -146 -436h-328q0 98 22.5 197.5t66 198t86.5 176.5t105 177q-61 96 -102 168t-82.5 162.5t-62.5 179t-21 175.5h327q0 -144 135 -376q134 230 134 376h327q0 -87 -20.5 -175.5t-62 -178.5t-82.5 -163t-102 -168q62 -98 105 -177
t86.5 -177t65.5 -197.5t22 -197.5z" />
    <glyph glyph-name="Tsecyrillic" unicode="&#x426;" horiz-adv-x="1087" 
d="M942 321h124v-496h-323v176q-369 9 -535 209q-38 46 -64.5 102.5t-40.5 107t-17.5 120t-3 117t10.5 124t16.5 115.5t20.5 116q35 192 35 259v163h327v-163q0 -101 -40 -318q-19 -102 -27 -158.5t-14.5 -140t6 -141t43.5 -94.5q45 -54 155 -77l3 6v1086h324v-1113z" />
    <glyph glyph-name="Checyrillic" unicode="&#x427;" horiz-adv-x="1040" 
d="M613 1434h324v-1434h-324v164h-1q0 70 -42 102q-91 72 -344 72h-148q-3 11 -6.5 30t-8 81.5t-1.5 127.5t21.5 161.5t53.5 189.5q21 55 29 79.5t22.5 79t18.5 97.5t4.5 109.5t-8.5 140.5h329q7 -75 8 -143t-6 -127.5t-14.5 -104t-23 -95.5t-25.5 -78.5t-28 -74.5
q-39 -105 -49 -154q124 -14 219 -51v828z" />
    <glyph glyph-name="Shacyrillic" unicode="&#x428;" horiz-adv-x="1527" 
d="M1101 1434h324v-1434h-646q-395 0 -571 210q-38 46 -64.5 102.5t-40.5 107t-17.5 120t-3 117t10.5 124t16.5 115.5t20.5 116q35 192 35 259v163h327v-163q0 -101 -40 -318q-19 -102 -27 -158.5t-14.5 -140t6 -141t43.5 -94.5q45 -54 155 -77l2 2v1090h324l1 -1107h159
v1107z" />
    <glyph glyph-name="Shchacyrillic" unicode="&#x429;" horiz-adv-x="1570" 
d="M1425 321h124v-496h-324v175h-446q-395 0 -571 210q-38 46 -64.5 102.5t-40.5 107t-17.5 120t-3 117t10.5 124t16.5 115.5t20.5 116q35 192 35 259v163h327v-163q0 -101 -40 -318q-19 -102 -27 -158.5t-14.5 -140t6 -141t43.5 -94.5q45 -54 155 -77l2 1v1091h324l1 -1107
h159v1107h324v-1113z" />
    <glyph glyph-name="Hardsigncyrillic" unicode="&#x42a;" horiz-adv-x="1060" 
d="M521 1036q227 -35 352 -192.5t125 -411.5v-11q0 -11 -0.5 -29.5t-0.5 -42v-49.5t-0.5 -51t-0.5 -47.5v-37.5v-164h-163q-395 0 -571 210q-38 46 -64.5 102.5t-40.5 107t-17.5 120t-3 117t10.5 124t16.5 115.5t20.5 116q12 64 17 94h-181v328h527v-163q0 -81 -26 -235z
M670 342v91q0 134 -47.5 200.5t-154.5 80.5q-21 -215 46 -295q45 -54 156 -77z" />
    <glyph glyph-name="Yericyrillic" unicode="&#x42b;" horiz-adv-x="1433" 
d="M102 1434h1229v-1434h-324v1106h-581v-95q144 -40 252 -152.5t169 -288.5q31 -89 48.5 -194t19.5 -146t2 -66v-164h-815v1434zM573 327q0 96 -38.5 186t-108.5 141v-327h147z" />
    <glyph glyph-name="Softsigncyrillic" unicode="&#x42c;" horiz-adv-x="985" 
d="M922 164v-164h-164q-394 0 -570 210q-30 36 -52.5 78.5t-37.5 82t-23 90t-12 89.5t-1.5 95.5t5.5 92.5t12 95t14 89.5t16 89.5q36 198 36 259v163h327v-163q0 -81 -26 -235q227 -35 352 -192.5t125 -411.5v-11v-29.5t-0.5 -42t-0.5 -49.5v-51v-47.5v-37.5zM596 433
q0 134 -47.5 200.5t-154.5 80.5q-21 -216 45 -295q45 -54 156 -77z" />
    <glyph glyph-name="Ereversedcyrillic" unicode="&#x42d;" horiz-adv-x="1032" 
d="M928 845q2 -177 0 -494v-187v-164h-164q-364 0 -549 206q-113 126 -150 322h336q20 -62 57 -103q50 -56 143 -80v8q0 42 0.5 133t0.5 139h-191v276h186q-9 78 -51.5 129t-145.5 72l-23 -92h-316l23 432h164q116 0 212.5 -19t165 -51.5t122 -79t87 -98t54.5 -112.5
t29.5 -118t9.5 -119z" />
    <glyph glyph-name="IUcyrillic" unicode="&#x42e;" horiz-adv-x="2019" 
d="M1229 1460q150 0 287 -58.5t236.5 -158t158 -236.5t58.5 -287t-58.5 -287t-158 -236.5t-236.5 -158t-287 -58.5q-262 0 -464.5 164t-258.5 414h-80v-555h-324v1434h324v-555h80q56 250 258.5 414t464.5 164zM1229 307q171 0 292 121t121 292t-121 292t-292 121t-292 -121
t-121 -292t121 -292t292 -121zM1400 720l-171 -171l-171 171l171 171z" />
    <glyph glyph-name="IAcyrillic" unicode="&#x42f;" horiz-adv-x="1034" 
d="M653 1434h278v-1433h-324v319q-118 -24 -173 -136q-19 -39 -30.5 -87t-13 -68t-1.5 -29l-164 1h-164q0 22 3 56t21 112t49 146q111 237 348 310q-237 73 -348 310q-30 64 -48 137t-21.5 110t-3.5 62v190h592zM417 1107q10 -27 13 -34q54 -118 177 -143v177h-190z" />
    <glyph glyph-name="acyrillic" unicode="&#x430;" horiz-adv-x="1153" 
d="M1071 0h-323l-22 221q-99 -107 -229 -164t-272 -57h-164v164q0 98 19 220.5t62.5 268t104.5 283t155 271t205 227.5h323zM397 360q126 47 204 188t61 323l-12 124q-92 -135 -158.5 -305.5t-94.5 -329.5z" />
    <glyph glyph-name="becyrillic" unicode="&#x431;" horiz-adv-x="978" 
d="M847 570q31 -89 48.5 -194t19.5 -146t2 -66v-164h-815v1434h760v-328h-436v-95q144 -40 252 -152.5t169 -288.5zM426 327h147q0 94 -38.5 184t-108.5 142v-326z" />
    <glyph glyph-name="vecyrillic" unicode="&#x432;" horiz-adv-x="1042" 
d="M940 1270q0 -26 -2.5 -62.5t-21 -124t-50.5 -163.5q-25 -57 -54 -101q43 -96 72 -208.5t39.5 -210.5t13.5 -149t3 -87v-164h-838v1434h838v-164zM586 1106h-160v-232q77 35 118.5 101.5t41.5 130.5zM426 327h176q0 141 -53 284q-56 -20 -123 -31v-253z" />
    <glyph glyph-name="gecyrillic" unicode="&#x433;" horiz-adv-x="888" 
d="M837 1434v-328h-411v-1106h-324v1434h735z" />
    <glyph glyph-name="decyrillic" unicode="&#x434;" horiz-adv-x="1130" 
d="M965 327h123v-496h-324v169h-420v-169h-324v496h99q13 73 32.5 146t56 169.5t82.5 181.5t116 173.5t154 153.5l-28 283h324zM454 327h187l-38 385q-98 -159 -149 -385z" />
    <glyph glyph-name="iecyrillic" unicode="&#x435;" 
d="M639 571h328q-13 -276 -183.5 -423.5t-475.5 -147.5h-163v164q0 61 -36 259q-14 76 -20.5 115.5t-16.5 115.5t-10.5 124t3.5 117t18 120t40.5 107t64.5 102q176 210 570 210h163v-445h-290l-22 110q-121 -25 -170 -84q-34 -41 -46 -121l164 35l57 -277l-205 -43
q13 -79 22 -127q18 -96 25 -141q54 12 90.5 34.5t55 55.5t26.5 64.5t11 75.5z" />
    <glyph glyph-name="zhecyrillic" unicode="&#x436;" horiz-adv-x="1396" 
d="M859 671q207 -59 341 -245.5t134 -425.5h-328q0 97 -40 179.5t-107 132.5v-312h-323v312q-67 -50 -107 -132.5t-40 -179.5h-328q0 239 134 425.5t341 245.5v83q-207 60 -341 249.5t-134 430.5h328q0 -99 40 -184t107 -135v319h323v-319q67 50 107 135t40 184h328
q0 -241 -134 -430.5t-341 -249.5v-83z" />
    <glyph glyph-name="zecyrillic" unicode="&#x437;" horiz-adv-x="968" 
d="M732 805q-3 -3 -10.5 -11t-11.5 -12q46 -56 81 -126t52.5 -139.5t28.5 -129t13 -117t2 -79t-1 -38.5l-10 -153h-794v327h471q0 94 -38.5 183t-106.5 132q-47 -6 -100 -6v303q81 0 155.5 49.5t74.5 117.5h-456v328h792l12 -151q1 -15 1 -33.5t-1.5 -61t-11 -86.5
t-25.5 -95.5t-46 -104.5t-71 -97z" />
    <glyph glyph-name="iicyrillic" unicode="&#x438;" horiz-adv-x="1095" 
d="M669 1434h324v-1434h-324v654l-243 -285v-369h-324v1434h324v-637l243 285v352z" />
    <glyph glyph-name="iishortcyrillic" unicode="&#x439;" horiz-adv-x="1095" 
d="M669 1434h324v-1434h-324v654l-243 -285v-369h-324v1434h324v-637l243 285v352zM547 1524q-139 0 -238 87t-99 209h245q0 -17 27 -33.5t65 -16.5t65.5 16.5t27.5 33.5h245q0 -122 -99 -209t-239 -87z" />
    <glyph glyph-name="kacyrillic" unicode="&#x43a;" horiz-adv-x="1038" 
d="M881 1083q-40 -93 -99 -166q58 -109 97 -260.5t53.5 -298.5t18.5 -224.5t4 -133.5h-164h-163q0 177 -30 389t-88 341q-40 -14 -84 -21v-709h-324v1434h324v-408q101 41 152 166q20 50 32.5 112.5t15 91t2.5 38.5h327q0 -26 -2.5 -63t-21 -124.5t-50.5 -163.5z" />
    <glyph glyph-name="elcyrillic" unicode="&#x43b;" horiz-adv-x="1052" 
d="M970 0h-324l-75 767q-95 -170 -137.5 -389.5t-42.5 -377.5h-328q0 24 1.5 61t10.5 132.5t25.5 188t51.5 215.5t82 228.5t122.5 212t169.5 180.5l-21 216h324z" />
    <glyph glyph-name="emcyrillic" unicode="&#x43c;" horiz-adv-x="1509" 
d="M1290 1434h116v-1434h-324v914q-85 -172 -131 -379.5t-46 -372.5h-302q0 165 -46 372.5t-131 379.5v-914h-324v1434h117q95 0 178.5 -44.5t149 -124.5t115.5 -173.5t92 -208.5q33 91 70.5 168.5t88 149.5t106 122.5t125.5 80.5t146 30z" />
    <glyph glyph-name="encyrillic" unicode="&#x43d;" horiz-adv-x="1095" 
d="M669 1434h324v-1434h-324v588l-243 30v-618h-324v1434h324v-488l243 -30v518z" />
    <glyph glyph-name="ocyrillic" unicode="&#x43e;" horiz-adv-x="1046" 
d="M846 194q-170 -194 -521 -194h-164q0 6 0.5 18.5t-0.5 54t-4.5 87.5t-13 117.5t-23.5 145.5q-47 241 -54 352q-18 292 120 456q173 203 556 203h163q-7 -158 32 -395q41 -250 45 -364q13 -311 -136 -481zM614 986q-17 100 -20 119q-108 -19 -155 -74q-26 -30 -37.5 -80.5
t-12.5 -98.5t8.5 -122.5t18.5 -120.5t25 -124q23 -113 30 -154q84 19 125 67q24 28 39 67t18.5 91.5t3.5 97.5t-9 113.5t-15 107.5t-19 111z" />
    <glyph glyph-name="pecyrillic" unicode="&#x43f;" horiz-adv-x="1095" 
d="M102 1434h891v-1434h-324v1106h-243v-1106h-324v1434z" />
    <glyph glyph-name="ercyrillic" unicode="&#x440;" horiz-adv-x="1015" 
d="M955 1273q1 -20 0 -56t-11 -121t-28 -169t-57 -190t-93 -195t-142 -172.5t-198 -133.5v-236h-324v1434h850zM426 614q149 166 190 492h-190v-492z" />
    <glyph glyph-name="escyrillic" unicode="&#x441;" 
d="M639 571h328q-13 -276 -183.5 -423.5t-475.5 -147.5h-163v163q0 61 -36 259q-11 59 -16 89.5t-14 89.5t-12 95t-5.5 92.5t1.5 95.5t12 89.5t23 90t37.5 82t52.5 78.5q176 210 570 210h163v-446h-290l-23 111q-119 -24 -169 -84q-31 -37 -43.5 -94.5t-6 -141t14.5 -140
t27 -158.5q19 -101 25 -140q54 12 90.5 34.5t55 55.5t26.5 64.5t11 75.5z" />
    <glyph glyph-name="tecyrillic" unicode="&#x442;" horiz-adv-x="888" 
d="M836 1434v-328h-230v-1106h-324v1106h-231v328h785z" />
    <glyph glyph-name="ucyrillic" unicode="&#x443;" horiz-adv-x="1069" 
d="M704 1434h324l-351 -1434h-324l93 380q-76 74 -139.5 171.5t-104 190.5t-72 196t-47.5 181.5t-26.5 155.5t-12.5 109t-3 50h333q7 -145 47.5 -324t123.5 -326z" />
    <glyph glyph-name="efcyrillic" unicode="&#x444;" horiz-adv-x="1394" 
d="M858 1345q113 -25 204.5 -86.5t149.5 -144.5t88.5 -180.5t30.5 -199.5q0 -122 -41.5 -233t-118.5 -196q-126 -140 -313 -182v-123h-324v123q-113 25 -204.5 86.5t-149.5 144.5t-88.5 180.5t-30.5 199.5q0 122 41.5 233t118.5 196q126 140 313 182v89h324v-89zM389 734
q0 -81 35.5 -153t109.5 -111v529q-39 -21 -70 -55q-75 -83 -75 -210zM928 524q76 84 76 210q0 81 -36 153.5t-110 111.5v-530q39 21 70 55z" />
    <glyph glyph-name="khacyrillic" unicode="&#x445;" horiz-adv-x="1038" 
d="M986 1434q0 -92 -23 -185t-71 -192t-89.5 -170t-110.5 -179l280 -708h-341l-144 366q-109 -211 -109 -366h-327q0 99 22.5 199t67 199t87.5 178t106 178l-269 680h341l136 -345q117 209 117 345h327z" />
    <glyph glyph-name="tsecyrillic" unicode="&#x446;" horiz-adv-x="1118" 
d="M993 327h104v-496h-324v169h-671v1434h324v-1107h243v1107h324v-1107z" />
    <glyph glyph-name="checyrillic" unicode="&#x447;" horiz-adv-x="1040" 
d="M615 1434h324v-1434h-324v347q-212 29 -350 178q-52 56 -91 125.5t-59.5 138.5t-33.5 131.5t-16 123t-3.5 92t1.5 57.5v241h327v-258q-3 -52 2.5 -120.5t34 -161.5t79.5 -147q43 -46 109 -66v753z" />
    <glyph glyph-name="shacyrillic" unicode="&#x448;" horiz-adv-x="1497" 
d="M1395 1434v-1434h-1293v1434h324v-1107h161v1107h323v-1107h161v1107h324z" />
    <glyph glyph-name="shchacyrillic" unicode="&#x449;" horiz-adv-x="1540" 
d="M1395 321h124v-496h-324v175h-1093v1434h324v-1107h161v1107h323v-1107h161v1107h324v-1113z" />
    <glyph glyph-name="hardsigncyrillic" unicode="&#x44a;" horiz-adv-x="1040" 
d="M908 570q31 -89 48.5 -194t19.5 -146t2 -66v-164h-814v1106h-144v328h468v-423q144 -40 251.5 -152t168.5 -289zM488 327h146q0 97 -38 186.5t-108 140.5v-327z" />
    <glyph glyph-name="yericyrillic" unicode="&#x44b;" horiz-adv-x="1433" 
d="M1331 0h-324v1434h324v-1434zM426 1011q144 -40 252 -152.5t169 -288.5q31 -89 48.5 -194t19.5 -146t2 -66v-164h-815v1434h324v-423zM426 654v-327h147q0 96 -38.5 186t-108.5 141z" />
    <glyph glyph-name="softsigncyrillic" unicode="&#x44c;" horiz-adv-x="978" 
d="M847 570q31 -89 48.5 -194t19.5 -146t2 -66v-164h-815v1434h324v-423q144 -40 252 -152.5t169 -288.5zM426 327h147q0 96 -38.5 186t-108.5 141v-327z" />
    <glyph glyph-name="ereversedcyrillic" unicode="&#x44d;" 
d="M840 1224q38 -46 64.5 -102t40.5 -107t18 -120t3.5 -117t-10.5 -124t-16.5 -115.5t-20.5 -115.5q-36 -198 -36 -259v-164h-163q-305 0 -475.5 147.5t-183.5 423.5h328q3 -44 11 -75.5t26.5 -64.5t55 -55.5t90.5 -34.5q7 45 25 141q17 91 25 143h-178v276h190
q-11 73 -45 114q-49 59 -170 84l-22 -110h-291v445h164q394 0 570 -210z" />
    <glyph glyph-name="iucyrillic" unicode="&#x44e;" horiz-adv-x="1505" 
d="M1398 1039q41 -250 45 -366q12 -310 -136 -479q-170 -194 -521 -194h-164q0 6 0.5 18.5t-0.5 54t-4.5 87.5t-13 117.5t-23.5 145.5q-38 201 -46 270h-109v-693h-324v1434h324v-414h117q29 124 104 211q173 203 556 203h163q-7 -158 32 -395zM1057 398q29 33 43.5 87.5
t17.5 106t-5 132.5t-15.5 128.5t-22.5 133.5q-17 100 -20 119q-108 -19 -155 -74q-26 -30 -37.5 -80.5t-12.5 -98.5t8.5 -122.5t18.5 -120.5t25 -124q23 -113 30 -154q84 19 125 67z" />
    <glyph glyph-name="iacyrillic" unicode="&#x44f;" horiz-adv-x="1026" 
d="M82 1434h841v-1434h-324v571q-51 10 -87 23q-48 -130 -75.5 -295.5t-27.5 -298.5h-327q0 36 6 110t21 189.5t49.5 250t81.5 241.5q-49 63 -83 138q-33 73 -51.5 158.5t-21 121.5t-2.5 61v164zM599 1106h-160q6 -78 49.5 -134.5t110.5 -86.5v221z" />
    <glyph glyph-name="uni0450" unicode="&#x450;" 
d="M639 571h328q-13 -276 -183.5 -423.5t-475.5 -147.5h-163v164q0 61 -36 259q-14 76 -20.5 115.5t-16.5 115.5t-10.5 124t3.5 117t18 120t40.5 107t64.5 102q176 210 570 210h163v-445h-290l-22 110q-121 -25 -170 -84q-34 -41 -46 -121l164 35l57 -277l-205 -43
q13 -79 22 -127q18 -96 25 -141q54 12 90.5 34.5t55 55.5t26.5 64.5t11 75.5zM735 1532h-323l-78 365h323z" />
    <glyph glyph-name="iocyrillic" unicode="&#x451;" 
d="M639 571h328q-13 -276 -183.5 -423.5t-475.5 -147.5h-163v164q0 61 -36 259q-14 76 -20.5 115.5t-16.5 115.5t-10.5 124t3.5 117t18 120t40.5 107t64.5 102q176 210 570 210h163v-445h-290l-22 110q-121 -25 -170 -84q-34 -41 -46 -121l164 35l57 -277l-205 -43
q13 -79 22 -127q18 -96 25 -141q54 12 90.5 34.5t55 55.5t26.5 64.5t11 75.5zM393 1532q-54 0 -92 38t-38 92t38 92.5t92 38.5t92.5 -38.5t38.5 -92.5t-38.5 -92t-92.5 -38zM720 1532q-54 0 -92 38t-38 92t38 92.5t92 38.5t92 -38.5t38 -92.5t-38 -92t-92 -38z" />
    <glyph glyph-name="djecyrillic" unicode="&#x452;" horiz-adv-x="1052" 
d="M759 881q60 -61 105 -146t69.5 -175t41 -192t19.5 -197t5.5 -188.5t-0.5 -166.5v-245h-505v328h179q3 600 -147 752q-20 20 -42 29v-680h-324v1105h-140v327h140v2h324v-2h292v-327h-292v-83q161 -26 275 -141z" />
    <glyph glyph-name="gjecyrillic" unicode="&#x453;" horiz-adv-x="888" 
d="M837 1434v-328h-411v-1106h-324v1434h735zM720 1897l-77 -365h-324l78 365h323z" />
    <glyph glyph-name="ecyrillic" unicode="&#x454;" horiz-adv-x="1032" 
d="M574 425q35 40 56 103h337q-37 -196 -150 -322q-185 -206 -550 -206h-163v164q0 27 -0.5 89.5t-0.5 97.5q-2 262 1 494q1 62 9.5 119t29.5 118t54.5 112.5t87 98t122 79t165 51.5t212.5 19h163l23 -432h-315l-24 92q-103 -21 -145.5 -72t-51.5 -129h186v-276h-190v-272
v-8q94 24 144 80z" />
    <glyph glyph-name="dzecyrillic" unicode="&#x455;" horiz-adv-x="972" 
d="M727 58q-138 -89 -332 -89q-84 0 -167.5 22.5t-125.5 44.5l-41 22v418h328v-159q39 -13 82 -11.5t77.5 25.5t34.5 62q0 46 -45 87t-151 108q-40 25 -62 39.5t-61.5 43.5t-63 52t-53.5 58t-46.5 69t-28 77.5t-11.5 90.5q0 192 138 307q57 47 135.5 75.5t146 37t141 7
t107 -5.5t57.5 -8l113 -24v-387h-290l-15 98q-45 7 -90.5 0t-80 -33t-34.5 -67q0 -8 3 -17t9.5 -18t13.5 -16.5t19.5 -17t21.5 -16.5t25 -17.5t25.5 -16.5t27.5 -17t27 -17q44 -28 67 -43t65.5 -46.5t67.5 -56t57 -63.5t49.5 -76t30 -86t12.5 -101q0 -104 -47.5 -191
t-135.5 -144z" />
    <glyph glyph-name="icyrillic" unicode="&#x456;" horiz-adv-x="528" 
d="M426 0h-324v1434h324v-1434z" />
    <glyph glyph-name="yicyrillic" unicode="&#x457;" horiz-adv-x="546" 
d="M435 0h-324v1434h324v-1434zM110 1532q-54 0 -92 38t-38 92t38 92.5t92 38.5t92 -38.5t38 -92.5t-38 -92t-92 -38zM436 1532q-54 0 -92 38t-38 92t38 92.5t92 38.5t92.5 -38.5t38.5 -92.5t-38.5 -92t-92.5 -38z" />
    <glyph glyph-name="jecyrillic" unicode="&#x458;" horiz-adv-x="1034" 
d="M907 1039q41 -250 45 -366q12 -310 -136 -479q-170 -194 -521 -194h-164q0 6 0.5 18.5t-0.5 54t-4.5 87.5t-13 117.5t-23.5 145.5q-3 18 -13.5 69.5t-15.5 80.5h332q12 -60 18 -88q23 -113 30 -154q84 19 125 67q24 28 39 67t18.5 91.5t3.5 97.5t-9 113.5t-15 107.5
t-19 111q-17 100 -20 119v1h-427v327h556q3 0 9 0.5t9 0.5h164q-7 -158 32 -395z" />
    <glyph glyph-name="ljecyrillic" unicode="&#x459;" horiz-adv-x="1482" 
d="M1351 570q31 -89 48.5 -194t19.5 -146t2 -66v-164h-787l-75 768q-95 -170 -138 -390.5t-43 -377.5h-327q0 24 1.5 61t10.5 132.5t25.5 188t51.5 215.5t82 228.5t122.5 212t169.5 180.5l-21 216h324l40 -407q172 -24 298.5 -141t195.5 -316zM926 327h151q0 110 -49 208.5
t-137 142.5z" />
    <glyph glyph-name="njecyrillic" unicode="&#x45a;" horiz-adv-x="1546" 
d="M1413 570q31 -89 48.5 -194t19.5 -146t2 -66v-164h-814v715l-243 30v-745h-324v1434h324v-361l243 -30v391h324v-423q144 -40 251.5 -152t168.5 -289zM993 654v-327h146q0 97 -38 186.5t-108 140.5z" />
    <glyph glyph-name="tshecyrillic" unicode="&#x45b;" horiz-adv-x="1050" 
d="M784 811q52 -56 91 -125.5t59.5 -138.5t33.5 -131.5t16 -123t3.5 -92t-1.5 -57.5v-143h-327l1 161q3 52 -2.5 120t-34 161t-79.5 147q-23 26 -60 46v-635h-324v1105h-140v327h140v2h324v-2h292v-327h-292v-125q180 -40 300 -169z" />
    <glyph glyph-name="kjecyrillic" unicode="&#x45c;" horiz-adv-x="1038" 
d="M881 1083q-40 -93 -99 -166q58 -109 97 -260.5t53.5 -298.5t18.5 -224.5t4 -133.5h-164h-163q0 177 -30 389t-88 341q-40 -14 -84 -21v-709h-324v1434h324v-409q101 41 152 167q20 50 32.5 112.5t15 91t2.5 38.5h327q0 -26 -2.5 -63t-21 -124.5t-50.5 -163.5zM768 1897
l-78 -365h-324l78 365h324z" />
    <glyph glyph-name="uni045d" unicode="&#x45d;" horiz-adv-x="1095" 
d="M669 1434h324v-1434h-324v654l-243 -285v-369h-324v1434h324v-637l243 285v352zM709 1532h-324l-78 365h324z" />
    <glyph glyph-name="ushortcyrillic" unicode="&#x45e;" horiz-adv-x="1069" 
d="M704 1434h324l-351 -1434h-324l93 380q-76 74 -139.5 171.5t-104 190.5t-72 196t-47.5 181.5t-26.5 155.5t-12.5 109t-3 50h333q7 -145 47.5 -324t123.5 -326zM538 1524q-139 0 -238 87t-99 209h245q0 -17 27 -33.5t65 -16.5t65 16.5t27 33.5h246q0 -122 -99 -209
t-239 -87z" />
    <glyph glyph-name="dzhecyrillic" unicode="&#x45f;" horiz-adv-x="1095" 
d="M669 1434h324v-1434h-284v-169h-323v169h-284v1434h324v-1107h243v1107z" />
    <glyph glyph-name="omegacyrillic" unicode="&#x461;" horiz-adv-x="1570" 
d="M956 1467q104 0 198.5 -40.5t163.5 -109.5t109.5 -163.5t40.5 -198.5v-954l-163 -1h-2q-32 0 -76 4t-124.5 17.5t-166.5 50t-151 90.5q-65 -54 -151 -90.5t-166.5 -50t-124.5 -17.5t-76 -4h-2l-163 1v954q0 104 40.5 198.5t109.5 163.5t163.5 109.5t198.5 40.5v-327
q-76 0 -130 -54t-54 -131v-607q191 45 191 163v293h324v-293h4q0 -53 34 -87q48 -48 158 -75v606q0 77 -54.5 131t-130.5 54v327z" />
    <glyph glyph-name="Yatcyrillic" unicode="&#x462;" horiz-adv-x="1130" 
d="M592 1036q226 -35 351 -192.5t125 -411.5v-11v-29.5v-42t-0.5 -49.5t-0.5 -51v-47.5v-37.5v-164h-164q-394 0 -570 210q-38 46 -64.5 102.5t-40.5 107t-17.5 120t-3 117t10.5 124t16.5 115.5t20.5 116q12 64 17 94h-252v328h864v-328h-281q-2 -18 -11 -70zM740 342l1 91
q0 134 -47.5 200.5t-154.5 80.5q-21 -215 46 -295q45 -55 155 -77z" />
    <glyph glyph-name="yatcyrillic" unicode="&#x463;" horiz-adv-x="1130" 
d="M592 1036q226 -35 351 -192.5t125 -411.5v-11v-29.5v-42t-0.5 -49.5t-0.5 -51v-47.5v-37.5v-164h-164q-394 0 -570 210q-38 46 -64.5 102.5t-40.5 107t-17.5 120t-3 117t10.5 124t16.5 115.5t20.5 116q12 64 17 94h-252v328h864v-328h-281q-2 -18 -11 -70zM740 342l1 91
q0 134 -47.5 200.5t-154.5 80.5q-21 -215 46 -295q45 -55 155 -77z" />
    <glyph glyph-name="eiotifiedcyrillic" unicode="&#x465;" horiz-adv-x="1505" 
d="M1006 425q35 40 56 103h337q-37 -196 -150 -322q-185 -206 -549 -206h-164v164q0 27 -0.5 89.5t-0.5 97.5v274h-109v-625h-324v1434h324v-533h112q6 84 27.5 156.5t70.5 145.5t122.5 124t190.5 83t267 32h163l23 -432h-315l-23 92q-103 -21 -146.5 -72t-51.5 -129h187
v-276h-191q0 -48 0.5 -139t0.5 -133v-8q93 24 143 80z" />
    <glyph glyph-name="Yuslittlecyrillic" unicode="&#x466;" horiz-adv-x="1402" 
d="M1044 0q0 132 -40 273h-148v-273h-310v273h-148q-40 -141 -40 -273h-327q0 103 19.5 205.5t44 178t72.5 170.5t78.5 147t87.5 144q94 152 146 270.5t59 236.5q0 26 1 39q0 15 -2 43h329q-3 -42 -3 -43q1 -13 1 -39q7 -118 59 -236.5t146 -270.5q58 -93 88 -144t78 -147
t73 -171t44.5 -177.5t19.5 -205.5h-328zM529 582h344q-44 80 -78 135q-18 29 -50.5 80t-43.5 69q-11 -18 -43.5 -69t-50.5 -80q-34 -55 -78 -135z" />
    <glyph glyph-name="yuslittlecyrillic" unicode="&#x467;" horiz-adv-x="1218" 
d="M860 0q0 132 -36 273h-60v-273h-310v273h-61q-35 -143 -35 -273h-327q0 86 15 172t34 151t56 147t61.5 128t70.5 129t65 118q41 76 68 165t37.5 161t14.5 133t3 96l-2 34h310q-1 -12 -2 -33.5t2 -87.5t13.5 -132.5t38 -159.5t69.5 -176q23 -47 75.5 -142.5t84.5 -160
t69 -156.5t55 -188t18 -198h-327zM508 582h201q-24 48 -49 92.5t-38 65.5l-13 20q-47 -69 -101 -178z" />
    <glyph glyph-name="yuslittleiotifiedcyrillic" unicode="&#x469;" horiz-adv-x="1775" 
d="M1345 0q0 132 -36 273h-60v-273h-310v273h-61q-35 -143 -35 -273h-327q0 136 36 273h-126v-273h-324v1434h324v-852h249q27 53 78 145t65 118q41 76 68 165t37.5 161t14.5 133t2 96l-1 34h310q-1 -12 -2 -33.5t2.5 -87.5t14 -132.5t38 -159.5t69.5 -176
q23 -47 75.5 -142.5t84.5 -160t69 -156.5t55 -188t18 -198h-328zM993 582h202q-24 48 -49 92.5t-38 65.5l-14 20q-47 -69 -101 -178z" />
    <glyph glyph-name="yusbigcyrillic" unicode="&#x46b;" horiz-adv-x="1523" 
d="M1346 1083q-40 -93 -99 -166q58 -109 97 -260.5t53.5 -298t19 -225t4.5 -133.5h-164h-164q0 178 -29.5 389.5t-87.5 340.5q-25 -9 -53 -15v-715h-323v715q-28 6 -53 15q-58 -129 -87.5 -340.5t-29.5 -389.5h-164h-164q0 55 4.5 133.5t19 225t53.5 298t97 260.5
q-59 73 -99 166q-32 76 -50.5 163.5t-21.5 125t-3 62.5h153h920h246q0 -25 -3 -62.5t-21.5 -125t-50.5 -163.5zM505 1140q79 -136 250 -136h13q171 0 250 136h-513z" />
    <glyph glyph-name="yusbigiotifiedcyrillic" unicode="&#x46d;" horiz-adv-x="1953" 
d="M1776 1083q-40 -93 -99 -166q58 -109 97 -260.5t53.5 -298t19 -225t4.5 -133.5h-164h-164q0 178 -29.5 389.5t-87.5 340.5q-25 -9 -53 -15v-715h-323v715q-28 6 -53 15q-58 -129 -87.5 -340.5t-29.5 -389.5h-164h-164q0 62 3.5 146t27 260.5t64.5 312.5h-201v-719h-324
v1434h324v-420h215q-22 41 -34 69q-32 76 -50.5 163.5t-21.5 125t-3 62.5h153h920h246q0 -25 -3 -62.5t-21.5 -125t-50.5 -163.5zM935 1140q79 -136 250 -136h13q171 0 250 136h-513z" />
    <glyph glyph-name="ksicyrillic" unicode="&#x46f;" horiz-adv-x="1052" 
d="M436 -118q86 24 179 32.5t202.5 -5t203.5 -54.5l-131 -300q-62 27 -137.5 33.5t-138 -2.5t-116.5 -27q-48 -17 -102 -17q-105 0 -195 64q-79 56 -124.5 145t-45.5 187q0 161 114 275t275 114h186q-31 240 -146 315q-46 -6 -99 -6v291q161 0 229 179h-485v328h822l12 -151
q1 -15 1 -33.5t-1.5 -61t-11 -86.5t-25.5 -95.5t-46 -104.5t-71 -97q-18 -20 -29 -30q47 -57 82.5 -128t53.5 -135t30.5 -130t13.5 -112t3.5 -80.5t-0.5 -36.5l-10 -153h-497q-31 0 -51 -16q-21 -17 -23 -42q-2 -31 23 -49.5t55 -10.5zM797 1778v-250l-271 -94l-272 94v250
l272 -95z" />
    <glyph glyph-name="psicyrillic" unicode="&#x471;" horiz-adv-x="1542" 
d="M1028 1434h411v-328h-65q5 -30 17 -94q14 -77 20.5 -116t16.5 -115.5t10.5 -124t-3 -117t-17.5 -120t-40.5 -107t-64.5 -102.5q-77 -92 -163.5 -140.5t-216.5 -62.5v-215h-324v215q-130 14 -216.5 62.5t-163.5 140.5q-30 36 -52.5 78.5t-37.5 82t-23 90t-12 89.5
t-1.5 95.5t5.5 92.5t12 95t14 89.5t16 89.5q12 64 17 94h-65v328h411v-163q0 -95 -41 -318q-16 -87 -22.5 -126t-15.5 -116.5t-7 -121t14.5 -92.5t38.5 -78q50 -56 129 -80v1095h324v-1095q77 23 128 80q26 29 38.5 78t14.5 92.5t-7 121t-15.5 116.5t-22.5 126
q-41 223 -41 318v163z" />
    <glyph glyph-name="Fitacyrillic" unicode="&#x472;" horiz-adv-x="1583" 
d="M792 1457q150 0 287 -58.5t236.5 -158t158 -236.5t58.5 -287t-58.5 -287.5t-158 -236.5t-236.5 -158t-287 -59t-287.5 59t-236.5 158t-158 236.5t-59 287.5t59 287t158 236.5t236.5 158t287.5 58.5zM792 1130q-125 0 -227.5 -69t-151.5 -180q73 18 143 17.5t119.5 -12.5
t115.5 -35q48 -17 75 -23.5t75.5 -10.5t105 9.5t128.5 43.5q-47 116 -150.5 188t-232.5 72zM792 304q122 0 222.5 65t150.5 172q-98 -29 -188 -31.5t-149.5 11t-139.5 41.5q-56 20 -85 26.5t-79.5 1t-112.5 -32.5q48 -113 151 -183t230 -70z" />
    <glyph glyph-name="fitacyrillic" unicode="&#x473;" horiz-adv-x="1044" 
d="M935 1039q41 -250 45 -366q12 -310 -136 -479q-170 -194 -521 -194h-164q0 6 0.5 18.5t-0.5 54t-4.5 87.5t-13 117.5t-23.5 145.5q-47 241 -54 352q-18 292 120 456q173 203 556 203h163q-7 -158 32 -395zM592 1105q-108 -19 -155 -74q-52 -61 -50 -191h249
q-4 28 -24 146q-17 100 -20 119zM469 331q84 19 125 67q56 64 61 203h-239q9 -50 23 -116q23 -113 30 -154z" />
    <glyph glyph-name="Izhitsacyrillic" unicode="&#x474;" horiz-adv-x="1228" 
d="M762 1434h415v-310h-103q-13 -118 -34.5 -231t-65 -252t-101.5 -253.5t-150.5 -220t-206.5 -167.5v0h-324l-141 1434h324l103 -1050q61 68 110 169t79.5 204t51.5 217.5t30.5 204.5t12.5 171v84z" />
    <glyph glyph-name="izhitsacyrillic" unicode="&#x475;" horiz-adv-x="1218" 
d="M793 1434h414v-310h-103q-13 -118 -34 -230.5t-64.5 -252t-102 -254t-150.5 -220t-206 -167.5v0h-324l-141 1434h324l103 -1050q61 68 110 169t79.5 204t51.5 217.5t30.5 204.5t12.5 171v84z" />
    <glyph glyph-name="otcyrillic" unicode="&#x47f;" horiz-adv-x="1570" 
d="M956 1263q104 0 198.5 -40.5t163.5 -109.5t109.5 -163.5t40.5 -198.5v-750l-163 -1h-2q-32 0 -76 4t-124.5 17.5t-166.5 50t-151 90.5q-65 -54 -151 -90.5t-166.5 -50t-124.5 -17.5t-76 -4h-2l-163 1v750q0 104 40.5 198.5t109.5 163.5t163.5 109.5t198.5 40.5v-328
q-76 0 -130 -53.5t-54 -130.5v-403q191 45 191 163h328q0 -53 34 -87q48 -48 158 -75v402q0 76 -54 130t-131 54v328zM565 1437q-17 4 -39 4h-424v328h424q139 0 259 -120q53 53 122 86.5t137 33.5h424v-328h-424q-22 0 -39 -4q-63 -14 -104.5 -64.5t-41.5 -115.5h-148
q0 65 -41.5 115.5t-104.5 64.5z" />
    <glyph glyph-name="koppacyrillic" unicode="&#x481;" horiz-adv-x="983" 
d="M608 1099q-119 -24 -169 -84q-31 -37 -43.5 -94.5t-6 -141t14.5 -140t27 -158.5q19 -101 25 -140q67 15 127.5 48.5t87.5 58.5l27 26v-643h-329v170q-20 -1 -61 -1h-163v163q0 61 -36 259q-11 59 -16 89.5t-14 89.5t-12 95t-5.5 92.5t1.5 95.5t12 89.5t23 90t37.5 82
t52.5 78.5q176 210 570 210h163v-446h-290z" />
    <glyph glyph-name="gheupturncyrillic" unicode="&#x491;" horiz-adv-x="888" 
d="M513 1564h324v-458h-411v-1106h-324v1434h411v130z" />
    <glyph glyph-name="Ghestrokecyrillic" unicode="&#x492;" horiz-adv-x="1073" 
d="M1010 1441v-604h-327v263q-109 -22 -155 -78q-32 -39 -43.5 -107t-7 -136t19.5 -160h350v-327h-295q9 -76 9 -121v-171h-328v171q0 50 -11 121h-181v327h125q-12 89 -15 164t5.5 156.5t38.5 156t81 135.5q176 210 571 210h163z" />
    <glyph glyph-name="ghestrokecyrillic" unicode="&#x493;" horiz-adv-x="923" 
d="M872 1106h-396v-226h147v-327h-147v-553h-324v553h-121v327h121v554h720v-328z" />
    <glyph glyph-name="ghemiddlehookcyrillic" unicode="&#x495;" horiz-adv-x="1042" 
d="M759 881q60 -61 105 -146t69.5 -175t41 -192t19.5 -197t5.5 -188.5t-0.5 -166.5v-245h-505v328h179q3 600 -147 752q-20 20 -42 29v-680h-324v1105h-140v327h140v2h324v-2h292v-327h-292v-83q161 -26 275 -141z" />
    <glyph glyph-name="zhedescendercyrillic" unicode="&#x497;" horiz-adv-x="1499" 
d="M1381 321h97v-496h-324v175h-81q0 177 -30 389t-88 341q-26 -9 -52 -15v-715h-324v715q-26 6 -52 15q-58 -129 -88 -341t-30 -389h-163h-164q0 56 4 133.5t18.5 224.5t53.5 298.5t97 260.5q-59 73 -99 166q-32 76 -50.5 163.5t-21 124.5t-2.5 63h327q0 -10 2.5 -38.5
t15 -91t32.5 -112.5q42 -105 120 -151v393h324v-393q79 46 121 151q20 50 32.5 113t14.5 90.5t2 38.5h327q0 -26 -2.5 -63t-21 -124.5t-50.5 -163.5q-40 -93 -99 -166q111 -209 154 -596z" />
    <glyph glyph-name="zedescendercyrillic" unicode="&#x499;" horiz-adv-x="968" 
d="M732 805q-3 -3 -10.5 -11t-11.5 -12q46 -56 81 -126t52.5 -139.5t28.5 -129t13 -117t2 -79t-1 -38.5l-10 -153h-229v-169h-324v169h-241v327h471q0 94 -38.5 183t-106.5 132q-47 -6 -100 -6v303q81 0 155.5 49.5t74.5 117.5h-456v328h792l12 -151q1 -15 1 -33.5t-1.5 -61
t-11 -86.5t-25.5 -95.5t-46 -104.5t-71 -97z" />
    <glyph glyph-name="kadescendercyrillic" unicode="&#x49b;" horiz-adv-x="1069" 
d="M936 327h112v-496h-324v168h-96q0 177 -30 389t-88 341q-40 -13 -84 -21v-709h-324v1434h324v-408q101 41 152 166q20 50 32.5 113t15 91.5t2.5 38.5l327 -1q0 -26 -2.5 -63t-21 -124.5t-50.5 -163.5q-40 -93 -99 -166q112 -210 154 -589z" />
    <glyph glyph-name="Kabashkircyrillic" unicode="&#x4a0;" horiz-adv-x="1071" 
d="M464 650q162 -17 283.5 -102.5t190.5 -232.5q31 -68 49 -146.5t20.5 -111.5t2.5 -56h-163l-164 -1q0 9 -1.5 29t-13 68t-30.5 87q-56 112 -174 136v-319h-323v1106h-121v327h241h203v-318q123 25 177 143q18 38 28.5 83.5t12 64.5t1.5 27h327q0 -23 -2.5 -56t-20.5 -111
t-49 -146q-69 -147 -190.5 -232.5t-283.5 -102.5v-136z" />
    <glyph glyph-name="kabashkircyrillic" unicode="&#x4a1;" horiz-adv-x="1071" 
d="M915 1082q-40 -93 -99 -166q58 -109 97 -260.5t53.5 -298.5t18.5 -224.5t4 -133.5h-164h-163q0 177 -30 389t-88 341q-40 -13 -84 -21v-709h-324v1107h-116v328h241v-1h199v-408q101 41 152 166q20 50 32.5 113t15 91.5t2.5 38.5l327 -1q0 -26 -2.5 -63t-21 -124.5
t-50.5 -163.5z" />
    <glyph glyph-name="endescendercyrillic" unicode="&#x4a3;" horiz-adv-x="1142" 
d="M993 327h108v-496h-323v169h-109v588l-243 30v-618h-324v1434h324v-488l243 -30v518h324v-1107z" />
    <glyph glyph-name="enghecyrillic" unicode="&#x4a5;" horiz-adv-x="1124" 
d="M1103 1434v-328h-110v-1106h-324v618l-243 -30v-588h-324v1434h324v-518l243 30v488h434z" />
    <glyph glyph-name="Esdescendercyrillic" unicode="&#x4aa;" horiz-adv-x="1030" 
d="M662 989l-22 118h-250q3 -104 22 -196t38 -142t55 -131q47 -109 57 -137q74 132 78 224h327q-6 -123 -60 -252t-107 -209q-68 -102 -135 -165l-55 -268h-324l35 169h-27h-139v326h108q-20 89 -57 180q-2 6 -18 44.5t-20.5 49.5t-19 49.5t-20 57t-17.5 58.5t-17 67
t-13 69.5t-11 80t-6 84t-3 94.5v274h906v-445h-305z" />
    <glyph glyph-name="esdescendercyrillic" unicode="&#x4ab;" 
d="M967 571q-18 -358 -292 -496l-50 -244h-324l35 169h-28h-163v163q0 61 -36 259q-11 59 -16 89.5t-14 89.5t-12 95t-5.5 92.5t1.5 95.5t12 89.5t23 90t37.5 82t52.5 78.5q176 210 570 210h163v-446h-290l-22 111q-121 -25 -170 -84q-31 -37 -43.5 -94.5t-6 -141t14.5 -140
t27 -158.5q19 -101 25 -140q54 12 90.5 34.5t55 55.5t26.5 64.5t11 75.5h328z" />
    <glyph glyph-name="ustraightcyrillic" unicode="&#x4af;" horiz-adv-x="1013" 
d="M627 1434h323l-282 -1034l-1 -3v-397h-324v402l-282 1032h324l121 -544z" />
    <glyph glyph-name="ustraightstrokecyrillic" unicode="&#x4b1;" horiz-adv-x="1013" 
d="M950 1434l-241 -882h114v-328h-156v-224h-324v224h-154v328h113l-241 882h324l121 -544l121 544h323z" />
    <glyph glyph-name="Hadescendercyrillic" unicode="&#x4b2;" horiz-adv-x="1132" 
d="M948 321h163v-496h-323v175h-107q0 177 -146 436q-146 -259 -146 -436h-328q0 98 22.5 197.5t66 198t86.5 176.5t105 177q-61 96 -102 168t-82.5 162.5t-62.5 179t-21 175.5h327q0 -144 135 -376q134 230 134 376h327q0 -87 -20.5 -175.5t-62 -178.5t-82.5 -163
t-102 -168q156 -249 219 -428z" />
    <glyph glyph-name="hadescendercyrillic" unicode="&#x4b3;" horiz-adv-x="1077" 
d="M855 321h159v-496h-323v175h-50l-144 366q-108 -209 -108 -366h-328q0 99 22.5 199t67 199t87.5 178t106 178l-269 680h341l136 -345q117 209 117 345h327q0 -92 -23 -185t-70.5 -191.5t-89 -170.5t-110.5 -179z" />
    <glyph glyph-name="chedescendercyrillic" unicode="&#x4b7;" horiz-adv-x="1097" 
d="M939 321h117v-496h-323v175h-118v347q-212 29 -350 178q-52 56 -91 125.5t-59.5 138.5t-33.5 131.5t-16 123t-3.5 92t1.5 57.5v241h327v-258q-3 -52 2.5 -120.5t34 -161.5t79.5 -147q43 -46 109 -66v753h324v-1113z" />
    <glyph glyph-name="Shhacyrillic" unicode="&#x4ba;" horiz-adv-x="1040" 
d="M961 1097q3 -11 6.5 -30t8 -81.5t1.5 -127.5t-21.5 -161.5t-53.5 -189.5q-20 -53 -29 -79t-22.5 -80t-18 -98t-4.5 -110t9 -140h-329q-7 75 -8 143.5t6 127.5t14.5 104t23 95.5t25.5 79t28 74.5q39 105 49 154q-129 15 -220 50v-827h-324v1433h324v-163h2q0 -71 42 -103
q89 -71 344 -71h147z" />
    <glyph glyph-name="shhacyrillic" unicode="&#x4bb;" horiz-adv-x="993" 
d="M726 811q52 -56 91 -125.5t59.5 -138.5t33.5 -131.5t16 -123t3.5 -92t-1.5 -57.5v-143h-327l1 161q3 52 -2.5 120t-34 161t-79.5 147q-23 26 -60 46v-635h-324v1434h324v-454q180 -40 300 -169z" />
    <glyph glyph-name="Abrevecyrillic" unicode="&#x4d0;" horiz-adv-x="1085" 
d="M537 1434h324l141 -1434h-324l-13 134h-297q-10 -73 -10 -134h-327q0 103 19.5 205.5t44 178t72.5 170.5t78.5 147t87.5 144q110 178 163.5 314.5t40.5 274.5zM461 444h173l-27 273q-92 -149 -146 -273zM664 1524q-140 0 -239 87t-99 209h246q0 -17 27 -33.5t65 -16.5
t65 16.5t27 33.5h246q0 -122 -99 -209t-239 -87z" />
    <glyph glyph-name="abrevecyrillic" unicode="&#x4d1;" horiz-adv-x="1132" 
d="M1071 0h-323l-22 221q-99 -107 -229 -164t-272 -57h-164v164q0 98 19 220.5t62.5 268t104.5 283t155 271t205 227.5h323zM397 360q126 47 204 188t61 323l-12 124q-92 -135 -158.5 -305.5t-94.5 -329.5zM670 1524q-140 0 -239 87t-99 209h246q0 -17 27 -33.5t65 -16.5
t65 16.5t27 33.5h246q0 -122 -99 -209t-239 -87z" />
    <glyph glyph-name="adieresiscyrillic" unicode="&#x4d3;" horiz-adv-x="1132" 
d="M568 1532q-54 0 -92 38t-38 92t38 92.5t92 38.5t92 -38.5t38 -92.5t-38 -92t-92 -38zM895 1532q-54 0 -92.5 38t-38.5 92t38.5 92.5t92.5 38.5t92 -38.5t38 -92.5t-38 -92t-92 -38zM1071 0h-323l-22 221q-99 -107 -229 -164t-272 -57h-164v164q0 98 19 220.5t62.5 268
t104.5 283t155 271t205 227.5h323zM397 360q126 47 204 188t61 323l-12 124q-92 -135 -158.5 -305.5t-94.5 -329.5z" />
    <glyph glyph-name="iebrevecyrillic" unicode="&#x4d7;" 
d="M639 571h328q-13 -276 -183.5 -423.5t-475.5 -147.5h-163v164q0 61 -36 259q-14 76 -20.5 115.5t-16.5 115.5t-10.5 124t3.5 117t18 120t40.5 107t64.5 102q176 210 570 210h163v-445h-290l-22 110q-121 -25 -170 -84q-34 -41 -46 -121l164 35l57 -277l-205 -43
q13 -79 22 -127q18 -96 25 -141q54 12 90.5 34.5t55 55.5t26.5 64.5t11 75.5zM583 1524q-139 0 -238 87t-99 209h245q0 -17 27 -33.5t65 -16.5t65 16.5t27 33.5h246q0 -122 -99 -209t-239 -87z" />
    <glyph glyph-name="schwacyrillic" unicode="&#x4d9;" 
d="M840 1224q38 -46 64.5 -102t40.5 -107t18 -120t3.5 -117t-10.5 -124t-16.5 -115.5t-20.5 -115.5q-36 -198 -36 -259v-164h-163q-305 0 -475.5 147.5t-183.5 423.5v289h578q-6 102 -50 155q-49 59 -170 84l-22 -110h-291v445h164q394 0 570 -210zM572 341q7 45 25 141
q2 11 6 33.5t6 34.5h-218q8 -82 46.5 -134.5t134.5 -74.5z" />
    <glyph glyph-name="zhedieresiscyrillic" unicode="&#x4dd;" horiz-adv-x="1482" 
d="M1326 1083q-40 -93 -99 -166q58 -109 97 -260.5t53.5 -298.5t18.5 -224.5t4 -133.5h-163h-164q0 177 -30 389t-88 341q-48 -14 -52 -15v-715h-324v715q-4 1 -52 15q-58 -129 -88 -341t-30 -389h-163h-164q0 56 4 133.5t18.5 224.5t53.5 298.5t97 260.5q-59 73 -99 166
q-32 76 -50.5 163.5t-21 124.5t-2.5 63h327q0 -10 2.5 -38.5t15 -91t32.5 -112.5q42 -105 120 -151v393h324v-393q79 46 121 151q20 50 32.5 113t14.5 90.5t2 38.5h327q0 -26 -2.5 -63t-21 -124.5t-50.5 -163.5zM578 1532q-54 0 -92.5 38t-38.5 92t38.5 92.5t92.5 38.5
t92 -38.5t38 -92.5t-38 -92t-92 -38zM904 1532q-54 0 -92 38t-38 92t38 92.5t92 38.5t92.5 -38.5t38.5 -92.5t-38.5 -92t-92.5 -38z" />
    <glyph glyph-name="zedieresiscyrillic" unicode="&#x4df;" horiz-adv-x="968" 
d="M732 805q-3 -3 -10.5 -11t-11.5 -12q46 -56 81 -126t52.5 -139.5t28.5 -129t13 -117t2 -79t-1 -38.5l-10 -153h-794v327h471q0 94 -38.5 183t-106.5 132q-47 -6 -100 -6v303q81 0 155.5 49.5t74.5 117.5h-456v328h792l12 -151q1 -15 1 -33.5t-1.5 -61t-11 -86.5
t-25.5 -95.5t-46 -104.5t-71 -97zM321 1532q-54 0 -92 38t-38 92t38 92.5t92 38.5t92.5 -38.5t38.5 -92.5t-38.5 -92t-92.5 -38zM648 1532q-54 0 -92 38t-38 92t38 92.5t92 38.5t92 -38.5t38 -92.5t-38 -92t-92 -38z" />
    <glyph glyph-name="idieresiscyrillic" unicode="&#x4e5;" horiz-adv-x="1095" 
d="M384 1532q-54 0 -92 38t-38 92t38 92.5t92 38.5t92 -38.5t38 -92.5t-38 -92t-92 -38zM711 1532q-54 0 -92.5 38t-38.5 92t38.5 92.5t92.5 38.5t92 -38.5t38 -92.5t-38 -92t-92 -38zM669 1434h324v-1434h-324v654l-243 -285v-369h-324v1434h324v-637l243 285v352z" />
    <glyph glyph-name="Odieresiscyrillic" unicode="&#x4e6;" horiz-adv-x="1583" 
d="M628 1532q-54 0 -92 38t-38 92t38 92.5t92 38.5t92.5 -38.5t38.5 -92.5t-38.5 -92t-92.5 -38zM955 1532q-54 0 -92 38t-38 92t38 92.5t92 38.5t92 -38.5t38 -92.5t-38 -92t-92 -38zM792 1457q150 0 287 -58.5t236.5 -158t158 -236.5t58.5 -287t-58.5 -287.5t-158 -236.5
t-236.5 -158t-287 -59t-287.5 59t-236.5 158t-158 236.5t-59 287.5t59 287t158 236.5t236.5 158t287.5 58.5zM792 304q171 0 292 121t121 292t-121 292t-292 121t-292.5 -121t-121.5 -292t121.5 -292t292.5 -121z" />
    <glyph glyph-name="odieresiscyrillic" unicode="&#x4e7;" horiz-adv-x="1046" 
d="M481 1613q-21 -50 -71.5 -71t-99.5 0q-50 21 -70.5 71t0.5 100t70.5 70.5t99.5 -0.5t71 -71t0 -99zM687 1532q-54 0 -92.5 38t-38.5 92t38.5 92.5t92.5 38.5t92 -38.5t38 -92.5t-38 -92t-92 -38zM937 1039q41 -250 45 -366q12 -310 -136 -479q-170 -194 -521 -194h-164
q0 6 0.5 18.5t-0.5 54t-4.5 87.5t-13 117.5t-23.5 145.5q-47 241 -54 352q-18 292 120 456q173 203 556 203h163q-7 -158 32 -395zM596 398q24 28 39 67t18.5 91.5t3.5 97.5t-9 113.5t-15 107.5t-19 111q-17 100 -20 119q-108 -19 -155 -74q-26 -30 -37.5 -80.5t-12.5 -98.5
t8.5 -122.5t18.5 -120.5t25 -124q23 -113 30 -154q84 19 125 67z" />
    <glyph glyph-name="Obarredcyrillic" unicode="&#x4e8;" horiz-adv-x="1583" 
d="M792 1457q150 0 287 -58.5t236.5 -158t158 -236.5t58.5 -287t-58.5 -287.5t-158 -236.5t-236.5 -158t-287 -59t-287.5 59t-236.5 158t-158 236.5t-59 287.5t59 287t158 236.5t236.5 158t287.5 58.5zM792 1130q-125 0 -227.5 -69t-151.5 -180q73 18 143 17.5t119.5 -12.5
t115.5 -35q48 -17 75 -23.5t75.5 -10.5t105 9.5t128.5 43.5q-47 116 -150.5 188t-232.5 72zM792 304q122 0 222.5 65t150.5 172q-98 -29 -188 -31.5t-149.5 11t-139.5 41.5q-56 20 -85 26.5t-79.5 1t-112.5 -32.5q48 -113 151 -183t230 -70z" />
    <glyph glyph-name="obarredcyrillic" unicode="&#x4e9;" horiz-adv-x="1046" 
d="M937 1039q41 -250 45 -366q12 -310 -136 -479q-170 -194 -521 -194h-164q0 6 0.5 18.5t-0.5 54t-4.5 87.5t-13 117.5t-23.5 145.5q-47 241 -54 352q-18 292 120 456q173 203 556 203h163q-7 -158 32 -395zM594 1105q-108 -19 -155 -74q-50 -58 -50 -183h248
q-9 64 -23 138q-17 100 -20 119zM471 331q84 19 125 67q51 58 59 175h-232q12 -60 18 -88q23 -113 30 -154z" />
    <glyph glyph-name="Umacroncyrillic" unicode="&#x4ee;" horiz-adv-x="1112" 
d="M822 1553h-534v219h534v-219zM780 730q83 -56 131.5 -145t48.5 -193q0 -169 -119.5 -288.5t-288.5 -119.5t-288.5 119.5t-119.5 288.5q0 105 50 195t135 146q-24 35 -46 66q-56 79 -87 128t-76 136.5t-67 179.5t-22 191h327q0 -62 15 -121t48 -120.5t57.5 -99.5
t71.5 -105q1 -1 2.5 -4t2.5 -4q4 6 6 8q47 67 71.5 105t57.5 99.5t48 120.5t15 121h327q0 -99 -22 -191t-67 -179.5t-76 -136.5t-87 -128zM552 311q34 0 57.5 23.5t23.5 57.5t-23.5 57.5t-57.5 23.5t-57.5 -23.5t-23.5 -57.5t23.5 -57.5t57.5 -23.5z" />
    <glyph glyph-name="umacroncyrillic" unicode="&#x4ef;" horiz-adv-x="1069" 
d="M704 1434h324l-351 -1434h-324l93 380q-76 74 -139.5 171.5t-104 190.5t-72 196t-47.5 181.5t-26.5 155.5t-12.5 109t-3 50h333q7 -145 47.5 -324t123.5 -326zM800 1553h-534v219h534v-219z" />
    <glyph glyph-name="udieresiscyrillic" unicode="&#x4f1;" horiz-adv-x="1069" 
d="M371 1532q-54 0 -92 38t-38 92t38 92.5t92 38.5t92 -38.5t38 -92.5t-38 -92t-92 -38zM698 1532q-54 0 -92.5 38t-38.5 92t38.5 92.5t92.5 38.5t92 -38.5t38 -92.5t-38 -92t-92 -38zM704 1434h324l-351 -1434h-324l93 380q-76 74 -139.5 171.5t-104 190.5t-72 196
t-47.5 181.5t-26.5 155.5t-12.5 109t-3 50h333q7 -145 47.5 -324t123.5 -326z" />
    <glyph glyph-name="uhungarumlautcyrillic" unicode="&#x4f3;" horiz-adv-x="1069" 
d="M704 1434h324l-351 -1434h-324l93 380q-76 74 -139.5 171.5t-104 190.5t-72 196t-47.5 181.5t-26.5 155.5t-12.5 109t-3 50h333q7 -145 47.5 -324t123.5 -326zM882 1897l-77 -365h-222l78 365h221zM540 1897l-78 -365h-221l78 365h221z" />
    <glyph glyph-name="chedieresiscyrillic" unicode="&#x4f5;" horiz-adv-x="1040" 
d="M615 1434h324v-1434h-324v347q-212 29 -350 178q-52 56 -91 125.5t-59.5 138.5t-33.5 131.5t-16 123t-3.5 92t1.5 57.5v241h327v-258q-3 -52 2.5 -120.5t34 -161.5t79.5 -147q43 -46 109 -66v753zM337 1532q-54 0 -92 38t-38 92t38 92.5t92 38.5t92 -38.5t38 -92.5
t-38 -92t-92 -38zM663 1532q-54 0 -92 38t-38 92t38 92.5t92 38.5t92.5 -38.5t38.5 -92.5t-38.5 -92t-92.5 -38z" />
    <glyph glyph-name="yerudieresiscyrillic" unicode="&#x4f9;" horiz-adv-x="1433" 
d="M553 1532q-54 0 -92 38t-38 92t38 92.5t92 38.5t92.5 -38.5t38.5 -92.5t-38.5 -92t-92.5 -38zM880 1532q-54 0 -92 38t-38 92t38 92.5t92 38.5t92 -38.5t38 -92.5t-38 -92t-92 -38zM1007 1434h324v-1434h-324v693h-213q31 -60 53 -123q31 -89 48.5 -194t19.5 -146t2 -66
v-164h-815v1434h324v-414h581v414zM426 327h147q0 96 -38.5 186t-108.5 141v-327z" />
    <glyph glyph-name="endash" unicode="&#x2013;" horiz-adv-x="901" 
d="M798 553h-696v327h696v-327z" />
    <glyph glyph-name="emdash" unicode="&#x2014;" horiz-adv-x="901" 
d="M798 553h-696v327h696v-327z" />
    <glyph glyph-name="quoteright" unicode="&#x2019;" horiz-adv-x="532" 
d="M429 1662l-97 -469h-230v469h327z" />
    <glyph glyph-name="uni20bd" unicode="&#x20bd;" horiz-adv-x="1212" 
d="M1110 1270q0 -68 -11.5 -135t-27.5 -120.5t-45.5 -113t-52.5 -99.5t-63 -94t-63.5 -82.5t-65.5 -79.5q-32 -37 -91 -114h225v-224h-335q-2 -22 -2 -34h-4v-174h-324v208h-148v224h148v1002h860v-164zM574 809q143 174 183 297h-183v-297z" />
    <glyph glyph-name="uni2626" unicode="&#x2626;" horiz-adv-x="1091" 
d="M988 794h-281v-259l119 -38v-327l-119 37v-207h-324v310l-118 38v327l118 -37v156h-281v327h281v313h324v-313h281v-327z" />
    <glyph glyph-name="unia641" unicode="&#xa641;" horiz-adv-x="983" 
d="M921 1270q0 -68 -11.5 -135t-27.5 -120.5t-45.5 -113t-52.5 -99.5t-63 -94t-63.5 -82.5t-65.5 -79.5q-124 -150 -164 -226h493v-163q0 -52 -14 -103t-31.5 -87t-51 -79t-54 -65.5t-58.5 -61.5q-84 -85 -119.5 -140t-35.5 -127h-328q0 70 17.5 136.5t38.5 112t62 99.5
t64 78.5t68 70.5l1 1v1h-419v186h1q1 70 19 140t41 121t67 116.5t72 100.5t80 98q60 72 93.5 115t73.5 109t60 127h-507v328h860v-164z" />
    <glyph glyph-name="unia648" unicode="&#xa648;" horiz-adv-x="1060" 
d="M774 811q52 -56 91 -125.5t59.5 -138.5t33.5 -131.5t16 -123t3.5 -92t-1.5 -57.5v-143h-327v161q3 52 -2.5 120t-34 161t-79.5 147q-24 27 -59 46v-635h-324v1105h-140v327h140v2h324v-2h292v-327h-292v-125q180 -40 300 -169z" />
    <glyph glyph-name="unia649" unicode="&#xa649;" horiz-adv-x="1040" 
d="M774 811q52 -56 91 -125.5t59.5 -138.5t33.5 -131.5t16 -123t3.5 -92t-1.5 -57.5v-143h-327v161q3 52 -2.5 120t-34 161t-79.5 147q-24 27 -59 46v-635h-324v958h-140v327h140v149h324v-149h292v-327h-213q126 -46 221 -147z" />
    <glyph glyph-name="unia64a" unicode="&#xa64a;" horiz-adv-x="1112" 
d="M780 730q83 -56 131.5 -145t48.5 -193q0 -169 -119.5 -288.5t-288.5 -119.5t-288.5 119.5t-119.5 288.5q0 105 50 195t135 146q-24 35 -46 66q-56 79 -87 128t-76 136.5t-67 179.5t-22 191h327q0 -62 15 -121t48 -120.5t57.5 -99.5t71.5 -105q1 -1 2.5 -4t2.5 -4q1 2 3 4
t3 4q47 67 71.5 105t57.5 99.5t48 120.5t15 121h327q0 -99 -22 -191t-67 -179.5t-76 -136.5t-87 -128zM552 311q34 0 57.5 23.5t23.5 57.5t-23.5 57.5t-57.5 23.5t-57.5 -23.5t-23.5 -57.5t23.5 -57.5t57.5 -23.5z" />
    <glyph glyph-name="unia651" unicode="&#xa651;" horiz-adv-x="1511" 
d="M1407 0h-324v1434h324v-1434zM503 1011q144 -40 251.5 -152t168.5 -289q31 -89 48.5 -194t19.5 -146t2 -66v-164h-814v1110h-169v324h493v-423zM503 654v-327h146q0 97 -38 186.5t-108 140.5z" />
    <glyph glyph-name="unia657" unicode="&#xa657;" horiz-adv-x="1611" 
d="M1529 0h-324l-21 221q-99 -107 -229 -164t-272 -57h-164v164q0 246 102 555h-195v-719h-324v1434h324v-420h317q135 262 321 420h324zM854 360q126 47 204.5 188t61.5 323l-13 124q-92 -135 -158.5 -305.5t-94.5 -329.5z" />
    <glyph glyph-name="yericyrillic.alt1" unicode="&#xf000;" horiz-adv-x="1433" 
d="M1007 1434h324v-1434h-324v693h-213q31 -60 53 -123q31 -89 48.5 -194t19.5 -146t2 -66v-164h-815v1434h324v-414h581v414zM426 327h147q0 96 -38.5 186t-108.5 141v-327z" />
    <glyph glyph-name="tshecyrillic.alt1" unicode="&#xf001;" horiz-adv-x="1048" 
d="M784 811q52 -56 91 -125.5t59.5 -138.5t33.5 -131.5t16 -123t3.5 -92t-1.5 -57.5v-143h-327l1 161q3 52 -2.5 120t-34 161t-79.5 147q-23 26 -60 46v-635h-324v958h-140v327h140v149h324v-149h292v-327h-213q126 -46 221 -147z" />
    <glyph glyph-name="z.alt1" unicode="&#xf002;" horiz-adv-x="931" 
d="M516 1106h353l-189 -324l85 -49l-163 -284l-87 51l-101 -173h455v-327h-808v327l190 325l-89 51l163 283l91 -52zM869 1106h-808v328h808v-328z" />
    <glyph glyph-name="zecyrillic.alt1" unicode="&#xf003;" horiz-adv-x="1011" 
d="M929 1283q1 -17 1.5 -38.5t-4 -73t-15 -100t-36.5 -110.5t-64 -113q54 -75 85 -170t31 -186q0 -106 -42 -197.5t-121 -155.5q-171 -139 -493 -139h-163q2 19 3.5 54.5t-8.5 149t-37 233.5l-5 25l321 64l5 -24q23 -119 31 -163q146 27 173 102q18 50 -1 115.5t-48 105.5
q-89 -26 -191 -26v309q81 0 155.5 49.5t74.5 111.5h-463v328h799z" />
    <glyph glyph-name="ocyrillic.alt1" unicode="&#xf004;" horiz-adv-x="1583" 
d="M792 1462q150 0 287 -58.5t236.5 -158t158 -236.5t58.5 -287t-58.5 -287.5t-158 -236.5t-236.5 -158t-287 -59t-287.5 59t-236.5 158t-158 236.5t-59 287.5t59 287t158 236.5t236.5 158t287.5 58.5zM885 873l168 168q-96 79 -220 91v-237q25 -5 52 -22zM751 895v237
q-125 -12 -221 -91l168 -168q26 16 53 22zM640 815l-168 168q-79 -96 -91 -221h237q6 27 22 53zM618 680h-237q12 -124 91 -220l168 168q-17 27 -22 52zM698 570l-168 -168q96 -79 221 -91v237q-27 6 -53 22zM832 548v-237q125 12 221 91l-168 168q-26 -16 -53 -22zM943 628
l168 -168q80 98 92 220h-238q-5 -25 -22 -52zM965 762h238q-12 123 -92 221l-168 -168q16 -26 22 -53z" />
    <glyph glyph-name="O.alt1" unicode="&#xf005;" horiz-adv-x="1583" 
d="M792 1462q150 0 287 -58.5t236.5 -158t158 -236.5t58.5 -287t-58.5 -287.5t-158 -236.5t-236.5 -158t-287 -59t-287.5 59t-236.5 158t-158 236.5t-59 287.5t59 287t158 236.5t236.5 158t287.5 58.5zM885 873l168 168q-96 79 -220 91v-237q25 -5 52 -22zM751 895v237
q-125 -12 -221 -91l168 -168q26 16 53 22zM640 815l-168 168q-79 -96 -91 -221h237q6 27 22 53zM618 680h-237q12 -124 91 -220l168 168q-17 27 -22 52zM698 570l-168 -168q96 -79 221 -91v237q-27 6 -53 22zM833 548v-237q124 12 220 91l-168 168q-27 -17 -52 -22zM943 628
l168 -168q79 96 91 220h-237q-5 -25 -22 -52zM965 762h237q-12 125 -91 221l-168 -168q16 -26 22 -53z" />
    <glyph glyph-name="tecyrillic.alt1" unicode="&#xf006;" horiz-adv-x="1550" 
d="M1468 327v-327h-433v163q0 101 40 318q19 102 27 158t14.5 140t-6 141t-43.5 94q-46 56 -155 78l-2 -2v-1090h-323l-2 1106h-159v-1106h-324v1434h647q394 0 570 -210q38 -46 64.5 -102.5t40.5 -107t17.5 -120t3 -117t-10.5 -124t-16.5 -115.5t-20.5 -116
q-10 -56 -17 -95h88z" />
    <glyph glyph-name="iicyrillic.alt1" unicode="&#xf007;" horiz-adv-x="1097" 
d="M671 1434h324v-1434h-278q-192 0 -304 49.5t-205 160.5q-38 46 -64.5 102.5t-40.5 107t-17.5 120t-3 117t10.5 124t16.5 115.5t20.5 116q12 64 17 94h-65v328h410v-163q0 -101 -40 -318q-16 -87 -22.5 -126t-15.5 -116.5t-7 -121t14.5 -92.5t38.5 -78q40 -44 92.5 -67
t85.5 -24l33 -1v1107z" />
    <glyph glyph-name="n.alt1" unicode="&#xf008;" horiz-adv-x="1060" 
d="M845 1349q39 -65 66 -138t42 -136.5t20 -146t4.5 -140t-9 -146t-15 -136.5t-19.5 -138q-37 -257 -37 -368h-327q0 134 41 415q18 121 25.5 187t13 164.5t-5.5 177.5t-37 149q-104 -19 -181 -71v-1022h-324v1434h324v-58q132 52 279 52h93z" />
    <glyph glyph-name="h.alt1" unicode="&#xf009;" horiz-adv-x="993" 
d="M726 811q52 -56 91 -125.5t59.5 -138.5t33.5 -131.5t16 -123t3.5 -92t-1.5 -57.5v-143h-327l1 161q3 52 -2.5 120t-34 161t-79.5 147q-23 26 -60 46v-635h-324v1434h324v-454q180 -40 300 -169z" />
    <glyph glyph-name="a.alt1" unicode="&#xf00b;" horiz-adv-x="1085" 
d="M983 1457v-1457h-324v267q-192 -267 -434 -267h-164v164q0 202 65.5 446.5t194.5 454.5q108 176 286 284t376 108zM403 391q102 85 172 222t84 309v66q-92 -117 -161.5 -283.5t-94.5 -313.5z" />
    <glyph glyph-name="acyrillic.alt1" unicode="&#xf00c;" horiz-adv-x="1085" 
d="M983 1457v-1457h-324v267q-192 -267 -434 -267h-164v164q0 202 65.5 446.5t194.5 454.5q108 176 286 284t376 108zM403 391q102 85 172 222t84 309v66q-92 -117 -161.5 -283.5t-94.5 -313.5z" />
    <glyph glyph-name="Gecyrillic.alt1" unicode="&#xf00d;" horiz-adv-x="985" 
d="M592 501h328q6 -94 -14 -198.5t-90 -187.5q-113 -133 -306 -133q-202 0 -322.5 115.5t-120.5 308.5q0 52 12.5 101t30 86t50 76t57 63t68 56t66 47t66.5 43q2 1 30.5 18t41.5 27t36 28t36.5 38t19.5 41q15 50 -10 82.5t-67 32.5q-25 0 -47 -15.5t-36 -37.5t-24 -45
t-14 -37.5t-4 -16.5l-318 78q11 47 32 96t58.5 102.5t84.5 94.5t115 67.5t146 26.5q419 0 419 -427q0 -47 -11.5 -90.5t-28 -77.5t-46 -69t-53 -57.5t-63 -51.5t-61.5 -43.5t-62 -39.5q-105 -67 -150.5 -108.5t-45.5 -87.5q0 -43 29.5 -76t79.5 -33q38 0 65 36t31.5 81
t-9.5 87h1z" />
    <glyph glyph-name="Acyrillic.alt1" unicode="&#xf00e;" 
d="M618 0v134h-244q-6 -63 -6 -134h-327q0 87 8.5 167t21.5 141t35.5 122.5t41.5 103t49 91t49.5 77.5t51.5 72t47 66q27 39 42 62t33.5 56.5t26 55.5t7.5 45t-12 39q-53 68 -175 4l-124 303q265 108 462 -23q66 -44 118 -113t87 -147.5t60.5 -185.5t40 -207t22.5 -232.5
t10.5 -242t2.5 -254.5h-328zM433 444h174q0 31 -3 69t-6.5 71t-7.5 61t-7 45l-3 18q-10 -17 -46.5 -73t-59.5 -99.5t-41 -91.5z" />
    <glyph glyph-name="v.alt1" unicode="&#xf00f;" horiz-adv-x="1239" 
d="M793 1434h414v-310h-103q-13 -118 -34 -230.5t-64.5 -252t-102 -254t-150.5 -220t-206 -167.5v0h-324l-141 1434h324l103 -1050q61 68 110 169t79.5 204t51.5 217.5t30.5 204.5t12.5 171v84z" />
    </font>
</defs>
</svg>
