<svg width="24" height="24" viewBox="0 0 24 24" fill="none" xmlns="http://www.w3.org/2000/svg">
<path d="M22.4991 10.5004H19.4995C18.6704 10.5004 17.9995 11.1712 17.9995 12.0004C17.9995 12.8295 18.6704 13.5004 19.4995 13.5004H22.4991C23.3283 13.5004 23.9991 12.8295 23.9991 12.0004C23.9991 11.1712 23.3283 10.5004 22.4991 10.5004Z" fill="#7A7A7A"/>
<path d="M18.6413 7.29977L21.2397 5.79977C21.9574 5.3854 22.2034 4.46815 21.7876 3.7504C21.3743 3.03265 20.4574 2.78665 19.7401 3.20102L17.1413 4.70102C16.4236 5.1154 16.1776 6.03265 16.5934 6.75002C17.0067 7.46815 17.9236 7.71415 18.6413 7.29977Z" fill="#7A7A7A"/>
<path d="M21.2397 18.2006L18.6414 16.701C17.9236 16.2866 17.0082 16.5326 16.5935 17.25C16.1791 17.9677 16.4236 18.8846 17.1414 19.2993L19.7401 20.7993C20.4575 21.2137 21.3744 20.9677 21.7891 20.25C22.2039 19.5322 21.9575 18.6153 21.2397 18.2006Z" fill="#7A7A7A"/>
<path d="M14.0737 0.115213C13.5142 -0.119162 12.8696 0.0113382 12.4391 0.440338L6.87862 6.00046H1.5C0.670875 6.00046 0 6.67134 0 7.50046V16.5005C0 17.3292 0.670875 18.0001 1.5 18.0001H6.87862L12.4391 23.5606C12.7264 23.8478 13.11 24.0001 13.4996 24.0001C13.6931 24.0001 13.8877 23.9633 14.0737 23.8857C14.6347 23.6543 14.9996 23.1065 14.9996 22.5001V1.50046C14.9996 0.894088 14.6347 0.346588 14.0737 0.115213Z" fill="#7A7A7A"/>
</svg>
