<svg width="22" height="22" viewBox="0 0 22 22" fill="none" xmlns="http://www.w3.org/2000/svg">
<path d="M19.3077 0.84613H2.69235C1.67696 0.84613 0.846191 1.6769 0.846191 2.69228V19.3077C0.846191 20.3231 1.67696 21.1538 2.69235 21.1538H19.3077C20.3231 21.1538 21.1539 20.3231 21.1539 19.3077V2.69228C21.1539 1.6769 20.3231 0.84613 19.3077 0.84613ZM4.5385 5.46152C4.5385 5.18459 4.72311 4.99998 5.00004 4.99998H9.61542C9.89235 4.99998 10.077 5.18459 10.077 5.46152V10.0769C10.077 10.3538 9.89235 10.5384 9.61542 10.5384H5.00004C4.72311 10.5384 4.5385 10.3538 4.5385 10.0769V5.46152ZM15.6154 17.4615C15.6154 17.7384 15.4308 17.9231 15.1539 17.9231H5.00004C4.72311 17.9231 4.5385 17.7384 4.5385 17.4615V16.5384C4.5385 16.2615 4.72311 16.0769 5.00004 16.0769H15.1539C15.4308 16.0769 15.6154 16.2615 15.6154 16.5384V17.4615ZM17.4616 13.7692C17.4616 14.0461 17.277 14.2307 17 14.2307H5.00004C4.72311 14.2307 4.5385 14.0461 4.5385 13.7692V12.8461C4.5385 12.5692 4.72311 12.3846 5.00004 12.3846H17C17.277 12.3846 17.4616 12.5692 17.4616 12.8461V13.7692ZM17.4616 10.0769C17.4616 10.3538 17.277 10.5384 17 10.5384H12.3847C12.1077 10.5384 11.9231 10.3538 11.9231 10.0769V9.15382C11.9231 8.8769 12.1077 8.69228 12.3847 8.69228H17C17.277 8.69228 17.4616 8.8769 17.4616 9.15382V10.0769ZM17.4616 6.38459C17.4616 6.66152 17.277 6.84613 17 6.84613H12.3847C12.1077 6.84613 11.9231 6.66152 11.9231 6.38459V5.46152C11.9231 5.18459 12.1077 4.99998 12.3847 4.99998H17C17.277 4.99998 17.4616 5.18459 17.4616 5.46152V6.38459Z" fill="#7A7A7A"/>
</svg>
