<svg width="56" height="35" viewBox="0 0 56 35" fill="none" xmlns="http://www.w3.org/2000/svg">
<path d="M43.2727 25L50.909 32.5L48.3636 35L40.7272 27.5L43.2727 25Z" fill="url(#paint0_linear_210_11093)"/>
<path d="M53.4546 25L56 27.5L50.909 32.5L48.3637 30L53.4546 25Z" fill="url(#paint1_linear_210_11093)"/>
<path d="M53.4546 25L50.9091 27.5L45.8182 22.5L48.3637 20L53.4546 25Z" fill="url(#paint2_linear_210_11093)"/>
<path d="M45.8181 27.5L43.2727 25L45.8182 22.5L48.3636 25L45.8181 27.5Z" fill="url(#paint3_linear_210_11093)"/>
<path d="M22.9091 25L30.5454 32.5L28 35L20.3636 27.5L22.9091 25Z" fill="url(#paint4_linear_210_11093)"/>
<path d="M33.0909 25L35.6364 27.5L30.5454 32.5L28 30L33.0909 25Z" fill="url(#paint5_linear_210_11093)"/>
<path d="M33.0909 25L30.5455 27.5L25.4546 22.5L28 20L33.0909 25Z" fill="url(#paint6_linear_210_11093)"/>
<path d="M25.4545 27.5L22.9091 25L25.4546 22.5L28 25L25.4545 27.5Z" fill="url(#paint7_linear_210_11093)"/>
<path d="M2.54545 25L10.1818 32.5L7.63635 35L0 27.5L2.54545 25Z" fill="url(#paint8_linear_210_11093)"/>
<path d="M12.7273 25L10.1819 27.5L5.09098 22.5L7.63643 20L12.7273 25Z" fill="url(#paint9_linear_210_11093)"/>
<path d="M5.09092 27.5L2.54545 25L5.09098 22.5L7.63637 25L5.09092 27.5Z" fill="url(#paint10_linear_210_11093)"/>
<path d="M22.9091 5.00001L43.2727 25L40.7272 27.5L20.3636 7.50001L22.9091 5.00001Z" fill="url(#paint11_linear_210_11093)"/>
<path d="M33.0909 5.00001L35.6364 7.50001L10.1818 32.5L7.63645 30L33.0909 5.00001Z" fill="url(#paint12_linear_210_11093)"/>
<path d="M33.0909 5.00001L30.5455 7.50001L25.4546 2.5L28 0L33.0909 5.00001Z" fill="url(#paint13_linear_210_11093)"/>
<path d="M25.4545 7.49996L22.9091 5.00001L25.4546 2.5L28 4.99996L25.4545 7.49996Z" fill="url(#paint14_linear_210_11093)"/>
<path d="M40.7272 22.5L38.1818 20L43.2727 15L45.8181 17.5L40.7272 22.5Z" fill="url(#paint15_linear_210_11093)"/>
<path d="M35.6364 17.5L33.091 15L38.1819 9.99998L40.7273 12.5L35.6364 17.5Z" fill="url(#paint16_linear_210_11093)"/>
<path d="M10.1819 17.5L12.7273 15L17.8182 20L15.2728 22.5L10.1819 17.5Z" fill="url(#paint17_linear_210_11093)"/>
<path d="M15.2728 12.5L17.8182 10L22.9091 15L20.3637 17.5L15.2728 12.5Z" fill="url(#paint18_linear_210_11093)"/>
<defs>
<linearGradient id="paint0_linear_210_11093" x1="46.8453" y1="19.0174" x2="-0.428051" y2="12.8634" gradientUnits="userSpaceOnUse">
<stop offset="0.0104167" stop-color="#333E77"/>
<stop offset="0.519535" stop-color="#4A80C5"/>
<stop offset="1" stop-color="#1EA6BF"/>
</linearGradient>
<linearGradient id="paint1_linear_210_11093" x1="46.8453" y1="19.0174" x2="-0.428051" y2="12.8634" gradientUnits="userSpaceOnUse">
<stop offset="0.0104167" stop-color="#333E77"/>
<stop offset="0.519535" stop-color="#4A80C5"/>
<stop offset="1" stop-color="#1EA6BF"/>
</linearGradient>
<linearGradient id="paint2_linear_210_11093" x1="46.8453" y1="19.0174" x2="-0.428051" y2="12.8634" gradientUnits="userSpaceOnUse">
<stop offset="0.0104167" stop-color="#333E77"/>
<stop offset="0.519535" stop-color="#4A80C5"/>
<stop offset="1" stop-color="#1EA6BF"/>
</linearGradient>
<linearGradient id="paint3_linear_210_11093" x1="46.8453" y1="19.0174" x2="-0.428051" y2="12.8634" gradientUnits="userSpaceOnUse">
<stop offset="0.0104167" stop-color="#333E77"/>
<stop offset="0.519535" stop-color="#4A80C5"/>
<stop offset="1" stop-color="#1EA6BF"/>
</linearGradient>
<linearGradient id="paint4_linear_210_11093" x1="46.8453" y1="19.0174" x2="-0.428051" y2="12.8634" gradientUnits="userSpaceOnUse">
<stop offset="0.0104167" stop-color="#333E77"/>
<stop offset="0.519535" stop-color="#4A80C5"/>
<stop offset="1" stop-color="#1EA6BF"/>
</linearGradient>
<linearGradient id="paint5_linear_210_11093" x1="46.8453" y1="19.0174" x2="-0.428051" y2="12.8634" gradientUnits="userSpaceOnUse">
<stop offset="0.0104167" stop-color="#333E77"/>
<stop offset="0.519535" stop-color="#4A80C5"/>
<stop offset="1" stop-color="#1EA6BF"/>
</linearGradient>
<linearGradient id="paint6_linear_210_11093" x1="46.8453" y1="19.0174" x2="-0.428051" y2="12.8634" gradientUnits="userSpaceOnUse">
<stop offset="0.0104167" stop-color="#333E77"/>
<stop offset="0.519535" stop-color="#4A80C5"/>
<stop offset="1" stop-color="#1EA6BF"/>
</linearGradient>
<linearGradient id="paint7_linear_210_11093" x1="46.8453" y1="19.0174" x2="-0.428051" y2="12.8634" gradientUnits="userSpaceOnUse">
<stop offset="0.0104167" stop-color="#333E77"/>
<stop offset="0.519535" stop-color="#4A80C5"/>
<stop offset="1" stop-color="#1EA6BF"/>
</linearGradient>
<linearGradient id="paint8_linear_210_11093" x1="46.8453" y1="19.0174" x2="-0.428051" y2="12.8634" gradientUnits="userSpaceOnUse">
<stop offset="0.0104167" stop-color="#333E77"/>
<stop offset="0.519535" stop-color="#4A80C5"/>
<stop offset="1" stop-color="#1EA6BF"/>
</linearGradient>
<linearGradient id="paint9_linear_210_11093" x1="46.8453" y1="19.0174" x2="-0.428051" y2="12.8634" gradientUnits="userSpaceOnUse">
<stop offset="0.0104167" stop-color="#333E77"/>
<stop offset="0.519535" stop-color="#4A80C5"/>
<stop offset="1" stop-color="#1EA6BF"/>
</linearGradient>
<linearGradient id="paint10_linear_210_11093" x1="46.8453" y1="19.0174" x2="-0.428051" y2="12.8634" gradientUnits="userSpaceOnUse">
<stop offset="0.0104167" stop-color="#333E77"/>
<stop offset="0.519535" stop-color="#4A80C5"/>
<stop offset="1" stop-color="#1EA6BF"/>
</linearGradient>
<linearGradient id="paint11_linear_210_11093" x1="46.8453" y1="19.0174" x2="-0.428051" y2="12.8634" gradientUnits="userSpaceOnUse">
<stop offset="0.0104167" stop-color="#333E77"/>
<stop offset="0.519535" stop-color="#4A80C5"/>
<stop offset="1" stop-color="#1EA6BF"/>
</linearGradient>
<linearGradient id="paint12_linear_210_11093" x1="46.8453" y1="19.0174" x2="-0.428051" y2="12.8634" gradientUnits="userSpaceOnUse">
<stop offset="0.0104167" stop-color="#333E77"/>
<stop offset="0.519535" stop-color="#4A80C5"/>
<stop offset="1" stop-color="#1EA6BF"/>
</linearGradient>
<linearGradient id="paint13_linear_210_11093" x1="46.8453" y1="19.0174" x2="-0.428051" y2="12.8634" gradientUnits="userSpaceOnUse">
<stop offset="0.0104167" stop-color="#333E77"/>
<stop offset="0.519535" stop-color="#4A80C5"/>
<stop offset="1" stop-color="#1EA6BF"/>
</linearGradient>
<linearGradient id="paint14_linear_210_11093" x1="46.8453" y1="19.0174" x2="-0.428051" y2="12.8634" gradientUnits="userSpaceOnUse">
<stop offset="0.0104167" stop-color="#333E77"/>
<stop offset="0.519535" stop-color="#4A80C5"/>
<stop offset="1" stop-color="#1EA6BF"/>
</linearGradient>
<linearGradient id="paint15_linear_210_11093" x1="46.8453" y1="19.0174" x2="-0.428051" y2="12.8634" gradientUnits="userSpaceOnUse">
<stop offset="0.0104167" stop-color="#333E77"/>
<stop offset="0.519535" stop-color="#4A80C5"/>
<stop offset="1" stop-color="#1EA6BF"/>
</linearGradient>
<linearGradient id="paint16_linear_210_11093" x1="46.8453" y1="19.0174" x2="-0.428051" y2="12.8634" gradientUnits="userSpaceOnUse">
<stop offset="0.0104167" stop-color="#333E77"/>
<stop offset="0.519535" stop-color="#4A80C5"/>
<stop offset="1" stop-color="#1EA6BF"/>
</linearGradient>
<linearGradient id="paint17_linear_210_11093" x1="46.8453" y1="19.0174" x2="-0.428051" y2="12.8634" gradientUnits="userSpaceOnUse">
<stop offset="0.0104167" stop-color="#333E77"/>
<stop offset="0.519535" stop-color="#4A80C5"/>
<stop offset="1" stop-color="#1EA6BF"/>
</linearGradient>
<linearGradient id="paint18_linear_210_11093" x1="46.8453" y1="19.0174" x2="-0.428051" y2="12.8634" gradientUnits="userSpaceOnUse">
<stop offset="0.0104167" stop-color="#333E77"/>
<stop offset="0.519535" stop-color="#4A80C5"/>
<stop offset="1" stop-color="#1EA6BF"/>
</linearGradient>
</defs>
</svg>
